<svg width="1920" height="128" viewBox="0 0 1920 128" fill="none" xmlns="http://www.w3.org/2000/svg">
<rect width="1920" height="128" fill="#00153A"/>
<rect width="1920" height="128" fill="url(#paint0_linear_2_1569)" fill-opacity="0.1"/>
<path d="M420.371 50.0488H391.136V58.4069H408.276L390.5 80.3549V87.562H420.371V79.2039H402.5L420.371 57.2559V50.0488Z" fill="white"/>
<path d="M477.29 40.1187H467.262L467.193 72.556C467.193 76.2812 467.73 79.2294 468.808 81.4042C469.887 83.579 471.568 85.1403 473.855 86.0806C476.143 87.021 479.149 87.493 482.874 87.493H488.055V78.3398H482.605C480.899 78.3398 479.588 77.8787 478.67 76.9601C477.751 76.0416 477.29 74.7054 477.29 72.9554V58.0148H488.059V50.0743H477.29V40.1187Z" fill="white"/>
<path d="M516.775 71.3615C516.775 73.3875 516.19 74.9959 515.025 76.1868C513.855 77.3777 512.323 77.9695 510.432 77.9695C508.54 77.9695 507.106 77.3995 506.002 76.2522C504.902 75.1085 504.35 73.5654 504.35 71.6266V50.0779H493.708V71.0965C493.708 76.5608 494.841 80.6599 497.114 83.3903C499.383 86.1242 502.589 87.4894 506.732 87.4894H507.193C509.97 87.4894 512.283 86.8831 514.131 85.6704C515.983 84.4577 517.37 82.6314 518.296 80.1843C518.586 79.4182 518.826 78.5867 519.022 77.7045V87.4967H527.416V50.0779H516.775V71.3615Z" fill="white"/>
<path d="M560.519 68.1446C558.119 66.2167 554.753 65.0149 550.425 64.5429L547.662 64.2851C545.818 64.0709 544.489 63.7078 543.676 63.1923C542.863 62.6767 542.456 61.9288 542.456 60.9412C542.456 59.9536 542.928 59.1004 543.872 58.4977C544.816 57.8986 546.079 57.5973 547.666 57.5973C549.638 57.5973 551.148 58.0039 552.197 58.8208C553.247 59.6341 553.835 60.5999 553.965 61.7145H563.159C563.031 57.9422 561.572 55.0593 558.787 53.066C555.999 51.0728 552.335 50.0779 547.793 50.0779C544.965 50.0779 542.445 50.5063 540.237 51.3632C538.03 52.2201 536.305 53.4836 535.06 55.1574C533.815 56.8312 533.197 58.908 533.197 61.395C533.197 64.4376 534.258 66.9138 536.378 68.82C538.498 70.7261 541.682 71.8952 545.927 72.3237L548.69 72.6468C550.963 72.861 552.557 73.2786 553.479 73.8994C554.401 74.5203 554.862 75.3445 554.862 76.3756C554.862 77.5338 554.274 78.4234 553.094 79.0442C551.914 79.6651 550.425 79.9773 548.625 79.9773C546.268 79.9773 544.5 79.538 543.32 78.6594C542.14 77.7807 541.465 76.7859 541.294 75.6712H532.166C532.337 79.4 533.836 82.3047 536.668 84.3815C539.497 86.4619 543.418 87.5003 548.432 87.5003C551.605 87.5003 554.368 87.0283 556.725 86.0843C559.081 85.1403 560.904 83.8042 562.189 82.065C563.474 80.3295 564.117 78.2818 564.117 75.9254C564.117 72.6686 562.915 70.0762 560.515 68.1483L560.519 68.1446Z" fill="white"/>
<path d="M460.744 61.0753C459.833 58.8461 458.537 56.8854 456.845 55.1971C455.157 53.5088 453.109 52.1763 450.705 51.1996C448.302 50.2266 445.56 49.7401 442.485 49.7401C439.41 49.7401 436.789 50.2266 434.363 51.1996C431.938 52.1727 429.868 53.5052 428.158 55.1971C426.448 56.8854 425.137 58.8461 424.226 61.0753C423.315 63.3083 422.861 65.6574 422.861 68.1263V69.6222C422.861 72.0475 423.293 74.3567 424.161 76.5424C425.028 78.7318 426.303 80.6815 427.995 82.3916C429.683 84.1017 431.742 85.4451 434.167 86.4181C436.592 87.3912 439.366 87.8813 442.485 87.8813C445.604 87.8813 448.44 87.3948 450.865 86.4181C453.29 85.4451 455.338 84.1017 457.005 82.3916C458.671 80.6815 459.938 78.7318 460.806 76.5424C461.674 74.3567 462.106 72.0475 462.106 69.6222V68.1263C462.106 65.6574 461.652 63.3083 460.741 61.0753H460.744Z" fill="#FF8000"/>
<path d="M452.772 69.9418L439.799 80.7179C439.33 81.1064 438.622 80.7724 438.622 80.166V69.6586C438.622 69.2628 438.303 68.9397 437.904 68.9397H432.661C431.989 68.9397 431.684 68.101 432.203 67.6689L445.176 56.8928C445.644 56.5043 446.352 56.8383 446.352 57.4446V67.9521C446.352 68.3478 446.672 68.671 447.071 68.671H452.314C452.986 68.671 453.291 69.5097 452.772 69.9418Z" fill="white"/>
<path d="M584.097 69.557L575.528 76.6733C575.22 76.9311 574.751 76.7096 574.751 76.3103V69.3682C574.751 69.1068 574.541 68.8926 574.276 68.8926H570.812C570.369 68.8926 570.169 68.3371 570.51 68.0539L579.079 60.9376C579.388 60.6798 579.856 60.9013 579.856 61.3007V68.2427C579.856 68.5041 580.067 68.7183 580.332 68.7183H583.795C584.238 68.7183 584.438 69.2738 584.097 69.557Z" fill="#FF8000"/>
<path d="M593.46 67.0262C592.977 67.0262 592.542 66.9172 592.153 66.6958C591.765 66.4743 591.463 66.1403 591.245 65.6937C591.028 65.2471 590.919 64.6843 590.919 64.0126C590.919 63.5188 590.98 63.0759 591.104 62.691C591.227 62.3062 591.413 61.9794 591.667 61.7071C591.921 61.4348 592.226 61.2278 592.589 61.0862C592.952 60.941 593.369 60.872 593.845 60.872C594.205 60.872 594.528 60.9119 594.822 60.9991C595.112 61.0826 595.366 61.2024 595.581 61.3622C595.795 61.5219 595.965 61.7071 596.085 61.9213C596.209 62.1355 596.274 62.3788 596.285 62.6547L595.069 63.0323C595.061 62.7818 595 62.5748 594.88 62.4151C594.76 62.2553 594.604 62.1319 594.415 62.052C594.223 61.9721 594.016 61.9322 593.787 61.9322C593.464 61.9322 593.192 62.0048 592.963 62.15C592.738 62.2953 592.56 62.5204 592.44 62.8217C592.317 63.1231 592.255 63.5043 592.255 63.9618C592.255 64.314 592.291 64.6153 592.36 64.8695C592.433 65.1236 592.534 65.3342 592.669 65.5012C592.803 65.6683 592.966 65.7917 593.155 65.8788C593.348 65.9623 593.566 66.0059 593.816 66.0059C594.067 66.0059 594.306 65.9623 594.502 65.8716C594.695 65.7808 594.851 65.6465 594.967 65.4649C595.083 65.2834 595.149 65.051 595.159 64.7715H594.041V63.842H596.441V66.9136H595.53L595.566 65.3996H595.395C595.301 65.759 595.17 66.0567 595.011 66.3C594.851 66.5433 594.64 66.7248 594.39 66.8519C594.139 66.979 593.823 67.0407 593.453 67.0407L593.46 67.0262Z" fill="white"/>
<path d="M599.701 67.0264C599.32 67.0264 598.975 66.972 598.674 66.8667C598.369 66.7578 598.115 66.6053 597.904 66.4019C597.697 66.1986 597.534 65.9481 597.425 65.654C597.316 65.3599 597.258 65.0186 597.258 64.6374C597.258 64.2562 597.312 63.9185 597.418 63.6026C597.523 63.2904 597.676 63.0181 597.875 62.793C598.071 62.5678 598.318 62.3899 598.616 62.2665C598.914 62.1394 599.244 62.0777 599.6 62.0777C599.956 62.0777 600.293 62.1358 600.569 62.2556C600.845 62.3754 601.078 62.5497 601.263 62.7784C601.448 63.0072 601.586 63.2904 601.673 63.6244C601.764 63.9584 601.796 64.3506 601.771 64.7971L598.082 64.8226V64.1254L601.027 64.0891L600.58 64.4377C600.616 64.1291 600.591 63.8713 600.508 63.668C600.424 63.4646 600.301 63.3158 600.141 63.2141C599.977 63.1161 599.803 63.0653 599.614 63.0653C599.386 63.0653 599.19 63.127 599.022 63.2504C598.855 63.3739 598.721 63.5482 598.623 63.7769C598.525 64.0056 598.474 64.2816 598.474 64.6047C598.474 65.1166 598.583 65.4942 598.805 65.7266C599.026 65.9626 599.317 66.0824 599.683 66.0824C599.85 66.0824 599.992 66.0607 600.108 66.0171C600.224 65.9735 600.322 65.9154 600.399 65.8428C600.475 65.7702 600.537 65.6903 600.584 65.5995C600.627 65.5088 600.664 65.4216 600.696 65.3309L601.815 65.5705C601.76 65.792 601.68 65.9917 601.579 66.1696C601.473 66.3475 601.335 66.5 601.161 66.6271C600.987 66.7541 600.78 66.8485 600.537 66.9175C600.297 66.9865 600.014 67.0192 599.691 67.0192L599.701 67.0264Z" fill="white"/>
<path d="M604.596 67.0264C604.28 67.0264 603.993 66.9974 603.743 66.9357C603.492 66.8739 603.271 66.7904 603.086 66.6779C602.901 66.5653 602.752 66.4274 602.639 66.2712C602.527 66.1115 602.447 65.9372 602.407 65.7484L603.383 65.3381C603.413 65.4652 603.482 65.585 603.587 65.7012C603.692 65.8174 603.837 65.9118 604.022 65.9771C604.208 66.0425 604.433 66.0788 604.694 66.0788C604.956 66.0788 605.173 66.0389 605.322 65.959C605.471 65.8791 605.547 65.7629 605.547 65.6141C605.547 65.5015 605.504 65.4107 605.42 65.3454C605.337 65.28 605.217 65.2219 605.057 65.1747C604.897 65.1275 604.705 65.0803 604.469 65.0331C604.248 64.9932 604.026 64.9387 603.797 64.8734C603.569 64.808 603.358 64.7209 603.158 64.612C602.959 64.5067 602.799 64.3614 602.683 64.1872C602.567 64.0093 602.508 63.7878 602.508 63.5191C602.508 63.2323 602.585 62.9854 602.737 62.7712C602.89 62.5606 603.118 62.3899 603.416 62.2665C603.718 62.1394 604.081 62.0777 604.505 62.0777C604.894 62.0777 605.232 62.1285 605.522 62.2338C605.812 62.3391 606.052 62.488 606.241 62.6804C606.433 62.8765 606.557 63.1052 606.618 63.3739L605.58 63.7224C605.555 63.5736 605.497 63.4465 605.406 63.3412C605.315 63.2359 605.192 63.156 605.039 63.0979C604.887 63.0398 604.709 63.0144 604.505 63.0144C604.255 63.0144 604.059 63.0544 603.914 63.1415C603.772 63.225 603.699 63.3376 603.699 63.4828C603.699 63.5954 603.747 63.6898 603.837 63.7587C603.928 63.8277 604.059 63.8858 604.226 63.9294C604.393 63.973 604.589 64.0202 604.818 64.0746C605.05 64.1218 605.279 64.1763 605.507 64.2416C605.733 64.3034 605.94 64.3869 606.125 64.4849C606.31 64.5829 606.455 64.7173 606.564 64.8843C606.669 65.0513 606.724 65.2691 606.724 65.5378C606.724 65.8464 606.64 66.1187 606.477 66.3439C606.314 66.569 606.074 66.7432 605.758 66.8594C605.442 66.9756 605.057 67.0337 604.603 67.0337L604.596 67.0264Z" fill="white"/>
<path d="M609.33 67.0081C608.811 67.0081 608.426 66.8702 608.176 66.5906C607.925 66.311 607.798 65.8717 607.798 65.2617V63.2212H607.126L607.144 62.201H607.609C607.787 62.201 607.925 62.1756 608.016 62.1211C608.107 62.0667 608.168 61.9686 608.19 61.827L608.295 61.1553H609.029V62.2046H610.22V63.2503H609.029V65.2109C609.029 65.4179 609.08 65.574 609.181 65.6756C609.283 65.7773 609.436 65.8281 609.639 65.8281C609.759 65.8281 609.868 65.8136 609.969 65.7882C610.071 65.7628 610.162 65.7228 610.245 65.6684V66.8774C610.06 66.9319 609.889 66.9682 609.733 66.9864C609.577 67.0045 609.443 67.0118 609.323 67.0118L609.33 67.0081Z" fill="white"/>
<path d="M612.249 67.0264C611.981 67.0264 611.745 66.9756 611.541 66.8703C611.338 66.765 611.178 66.6161 611.066 66.4164C610.953 66.2204 610.895 65.9771 610.895 65.6903C610.895 65.4325 610.946 65.2183 611.044 65.0404C611.142 64.8661 611.287 64.7245 611.483 64.6156C611.676 64.5066 611.912 64.4195 612.187 64.3469C612.46 64.2743 612.783 64.2126 613.153 64.1581C613.338 64.129 613.491 64.1 613.614 64.0746C613.738 64.0492 613.829 64.002 613.887 63.9402C613.945 63.8785 613.977 63.7878 613.977 63.6679C613.977 63.5009 613.919 63.3593 613.8 63.2395C613.68 63.1197 613.487 63.0616 613.226 63.0616C613.059 63.0616 612.903 63.0906 612.758 63.1451C612.612 63.1996 612.485 63.2903 612.38 63.4138C612.275 63.5372 612.198 63.6897 612.151 63.8749L611.015 63.5263C611.087 63.2831 611.189 63.0689 611.32 62.891C611.45 62.713 611.61 62.5606 611.803 62.4371C611.995 62.3137 612.217 62.2229 612.467 62.1648C612.718 62.1067 612.983 62.074 613.262 62.074C613.716 62.074 614.086 62.1466 614.377 62.2919C614.667 62.4371 614.882 62.6658 615.027 62.9708C615.172 63.2758 615.241 63.6716 615.241 64.1581V64.9532C615.241 65.1602 615.245 65.3744 615.256 65.5923C615.266 65.8101 615.277 66.0279 615.295 66.2458C615.314 66.4636 615.335 66.6815 615.357 66.8957H614.203C614.184 66.7468 614.166 66.5726 614.144 66.3765C614.123 66.1804 614.108 65.9844 614.094 65.7956H613.941C613.85 66.0171 613.731 66.2204 613.574 66.4092C613.418 66.598 613.23 66.7468 613.008 66.8558C612.783 66.9647 612.532 67.0228 612.253 67.0228L612.249 67.0264ZM614.119 61.6202C613.992 61.6202 613.861 61.5948 613.716 61.5476C613.571 61.5004 613.433 61.4459 613.291 61.3806C613.15 61.3188 613.019 61.2607 612.899 61.2099C612.776 61.1591 612.678 61.1337 612.598 61.1337C612.496 61.1337 612.434 61.1772 612.409 61.2644C612.384 61.3515 612.384 61.4495 612.402 61.5621H611.81C611.708 61.3479 611.668 61.1446 611.69 60.9594C611.712 60.7706 611.781 60.6181 611.904 60.4983C612.028 60.3785 612.184 60.3204 612.373 60.3204C612.5 60.3204 612.63 60.3458 612.772 60.393C612.914 60.4402 613.052 60.4946 613.19 60.56C613.328 60.6217 613.455 60.6762 613.571 60.7198C613.687 60.7633 613.781 60.7851 613.854 60.7851C613.956 60.7851 614.017 60.7379 614.039 60.6471C614.061 60.5564 614.061 60.462 614.043 60.3748H614.642C614.718 60.5782 614.751 60.7742 614.74 60.9666C614.729 61.1591 614.671 61.3152 614.569 61.435C614.468 61.5585 614.319 61.6202 614.123 61.6202H614.119ZM612.797 66.0969C612.906 66.0969 613.019 66.0751 613.139 66.0352C613.259 65.9953 613.371 65.9372 613.48 65.8609C613.589 65.7883 613.691 65.6939 613.785 65.5777C613.879 65.4652 613.952 65.3381 613.999 65.1929V64.4486L614.195 64.4849C614.094 64.5611 613.97 64.6228 613.825 64.67C613.68 64.7136 613.531 64.7499 613.378 64.7717C613.226 64.7971 613.077 64.8225 612.925 64.8516C612.772 64.8806 612.641 64.9169 612.522 64.9641C612.402 65.0077 612.311 65.073 612.246 65.1566C612.18 65.2401 612.148 65.3526 612.148 65.4978C612.148 65.683 612.206 65.8282 612.325 65.9372C612.445 66.0425 612.601 66.0969 612.801 66.0969H612.797Z" fill="white"/>
<path d="M618.505 67.0264C618.041 67.0264 617.627 66.932 617.267 66.7432C616.904 66.5544 616.625 66.2785 616.421 65.9118C616.218 65.5451 616.116 65.0876 616.116 64.5394C616.116 63.9911 616.218 63.5336 616.425 63.1706C616.632 62.8075 616.915 62.5352 617.274 62.35C617.634 62.1648 618.044 62.0777 618.505 62.0777C618.966 62.0777 619.384 62.1685 619.751 62.3536C620.114 62.5388 620.401 62.8147 620.604 63.1814C620.811 63.5482 620.912 64.0056 620.912 64.5575C620.912 65.1094 620.807 65.5814 620.597 65.9481C620.386 66.3148 620.096 66.5871 619.732 66.765C619.369 66.9393 618.959 67.0301 618.505 67.0301V67.0264ZM618.552 66.0788C618.785 66.0788 618.981 66.0243 619.141 65.9118C619.3 65.8029 619.417 65.6358 619.5 65.418C619.58 65.2002 619.62 64.9351 619.62 64.6265C619.62 64.2997 619.576 64.0202 619.489 63.7878C619.402 63.5554 619.275 63.3811 619.108 63.2541C618.941 63.127 618.73 63.0653 618.473 63.0653C618.251 63.0653 618.059 63.1197 617.895 63.225C617.732 63.3303 617.612 63.4937 617.532 63.7115C617.456 63.9294 617.416 64.1981 617.416 64.5212C617.416 65.0222 617.518 65.4071 617.717 65.6722C617.917 65.9372 618.197 66.0715 618.556 66.0715L618.552 66.0788Z" fill="white"/>
<path d="M593.831 75.976C593.377 75.976 592.97 75.9107 592.614 75.7836C592.255 75.6565 591.95 75.4641 591.696 75.2063C591.442 74.9485 591.249 74.6363 591.118 74.2659C590.988 73.8956 590.922 73.4599 590.922 72.9588C590.922 72.4578 590.988 72.0039 591.118 71.6155C591.249 71.227 591.442 70.9002 591.696 70.6315C591.95 70.3628 592.248 70.1595 592.596 70.0215C592.941 69.8836 593.326 69.8146 593.751 69.8146C594.085 69.8146 594.39 69.8545 594.669 69.9417C594.949 70.0288 595.188 70.1486 595.395 70.312C595.602 70.4754 595.762 70.6751 595.875 70.9075C595.987 71.1398 596.049 71.4012 596.053 71.6953L594.862 72.0185C594.862 71.7571 594.804 71.5392 594.691 71.3722C594.579 71.2052 594.433 71.0817 594.263 70.9946C594.088 70.9111 593.903 70.8675 593.707 70.8675C593.54 70.8675 593.37 70.9038 593.199 70.9728C593.025 71.0454 592.868 71.158 592.723 71.3141C592.582 71.4702 592.469 71.6735 592.389 71.9277C592.309 72.1819 592.269 72.4941 592.269 72.8717C592.269 73.3619 592.338 73.754 592.476 74.0517C592.614 74.3494 592.807 74.5709 593.054 74.7089C593.301 74.8505 593.573 74.9195 593.874 74.9195C594.201 74.9195 594.459 74.8505 594.64 74.7125C594.822 74.5745 594.952 74.4003 595.032 74.1897C595.112 73.9791 595.159 73.754 595.17 73.5216L596.289 73.6995C596.281 74.0154 596.234 74.3131 596.143 74.5891C596.053 74.865 595.915 75.1083 595.722 75.3152C595.53 75.5222 595.279 75.6819 594.967 75.7945C594.655 75.907 594.277 75.9651 593.834 75.9651L593.831 75.976Z" fill="white"/>
<path d="M599.28 75.976C598.816 75.976 598.402 75.8816 598.042 75.6928C597.679 75.504 597.4 75.2281 597.196 74.8614C596.993 74.4947 596.891 74.0372 596.891 73.4889C596.891 72.9407 596.993 72.4832 597.2 72.1201C597.407 71.7571 597.69 71.4847 598.049 71.2996C598.409 71.1144 598.819 71.0273 599.28 71.0273C599.741 71.0273 600.159 71.118 600.526 71.3032C600.889 71.4884 601.176 71.7643 601.379 72.131C601.586 72.4977 601.688 72.9552 601.688 73.5071C601.688 74.059 601.582 74.531 601.372 74.8977C601.161 75.2644 600.871 75.5367 600.508 75.7146C600.144 75.8889 599.734 75.9796 599.28 75.9796V75.976ZM599.324 75.0284C599.556 75.0284 599.752 74.9739 599.912 74.8614C600.072 74.7524 600.188 74.5854 600.272 74.3676C600.351 74.1497 600.391 73.8847 600.391 73.5761C600.391 73.2493 600.348 72.9697 600.261 72.7374C600.173 72.505 600.046 72.3307 599.879 72.2036C599.712 72.0766 599.502 72.0148 599.244 72.0148C599.023 72.0148 598.83 72.0693 598.667 72.1746C598.503 72.2799 598.383 72.4433 598.304 72.6611C598.227 72.879 598.187 73.1476 598.187 73.4708C598.187 73.9718 598.289 74.3567 598.489 74.6217C598.688 74.8868 598.968 75.0211 599.328 75.0211L599.324 75.0284Z" fill="white"/>
<path d="M602.603 75.8526V71.1543H603.659L603.652 72.5522H603.83C603.906 72.2182 604.019 71.9386 604.16 71.7099C604.306 71.4811 604.483 71.3141 604.701 71.1979C604.919 71.0854 605.177 71.0273 605.475 71.0273C606.019 71.0273 606.43 71.2197 606.713 71.6009C606.996 71.9822 607.138 72.5849 607.138 73.4091V75.8526H605.849V73.5434C605.849 73.0496 605.776 72.6829 605.627 72.4505C605.482 72.2182 605.264 72.102 604.977 72.102C604.734 72.102 604.531 72.1782 604.371 72.3271C604.211 72.4759 604.091 72.672 604.008 72.9116C603.924 73.1549 603.881 73.4236 603.881 73.7213V75.8526H602.592H602.603Z" fill="white"/>
<path d="M610.002 75.958C609.483 75.958 609.098 75.82 608.847 75.5405C608.597 75.2609 608.47 74.8216 608.47 74.2116V72.1711H607.798L607.816 71.1509H608.281C608.459 71.1509 608.597 71.1255 608.688 71.071C608.778 71.0165 608.84 70.9185 608.862 70.7769L608.967 70.1052H609.701V71.1545H610.892V72.2002H609.701V74.1608C609.701 74.3677 609.752 74.5239 609.853 74.6255C609.955 74.7272 610.107 74.778 610.311 74.778C610.43 74.778 610.539 74.7635 610.641 74.7381C610.743 74.7127 610.833 74.6727 610.917 74.6183V75.8273C610.732 75.8818 610.561 75.9181 610.405 75.9362C610.249 75.9544 610.115 75.9616 609.995 75.9616L610.002 75.958Z" fill="white"/>
<path d="M612.921 75.976C612.653 75.976 612.417 75.9252 612.213 75.8199C612.01 75.7146 611.85 75.5658 611.738 75.3661C611.625 75.17 611.567 74.9268 611.567 74.6399C611.567 74.3821 611.618 74.1679 611.716 73.99C611.814 73.8157 611.959 73.6741 612.155 73.5652C612.348 73.4563 612.584 73.3691 612.86 73.2965C613.132 73.2239 613.455 73.1622 613.825 73.1077C614.01 73.0787 614.163 73.0496 614.286 73.0242C614.41 72.9988 614.501 72.9516 614.559 72.8899C614.617 72.8282 614.649 72.7374 614.649 72.6176C614.649 72.4506 614.591 72.309 614.472 72.1891C614.352 72.0693 614.159 72.0112 613.898 72.0112C613.731 72.0112 613.575 72.0403 613.43 72.0947C613.284 72.1492 613.157 72.24 613.052 72.3634C612.947 72.4869 612.87 72.6394 612.823 72.8245L611.687 72.476C611.759 72.2327 611.861 72.0185 611.992 71.8406C612.122 71.6627 612.282 71.5102 612.475 71.3867C612.667 71.2633 612.889 71.1725 613.139 71.1144C613.39 71.0563 613.655 71.0237 613.934 71.0237C614.388 71.0237 614.758 71.0963 615.049 71.2415C615.339 71.3867 615.554 71.6155 615.699 71.9205C615.844 72.2255 615.913 72.6212 615.913 73.1077V73.9029C615.913 74.1098 615.917 74.324 615.928 74.5419C615.938 74.7597 615.949 74.9776 615.967 75.1954C615.986 75.4133 616.007 75.6311 616.029 75.8453H614.875C614.856 75.6965 614.838 75.5222 614.816 75.3261C614.795 75.1301 614.78 74.934 614.766 74.7452H614.613C614.522 74.9667 614.403 75.17 614.246 75.3588C614.09 75.5476 613.902 75.6965 613.68 75.8054C613.455 75.9143 613.204 75.9724 612.925 75.9724L612.921 75.976ZM613.466 75.0466C613.575 75.0466 613.687 75.0248 613.807 74.9848C613.927 74.9449 614.04 74.8868 614.148 74.8106C614.257 74.738 614.359 74.6435 614.453 74.5274C614.548 74.4148 614.62 74.2877 614.668 74.1425V73.3982L614.864 73.4345C614.762 73.5108 614.639 73.5725 614.493 73.6197C614.348 73.6632 614.199 73.6996 614.047 73.7213C613.894 73.7468 613.745 73.7722 613.593 73.8012C613.44 73.8303 613.31 73.8666 613.19 73.9138C613.07 73.9573 612.979 74.0227 612.914 74.1062C612.849 74.1897 612.816 74.3023 612.816 74.4475C612.816 74.6327 612.874 74.7779 612.994 74.8868C613.114 74.9921 613.27 75.0466 613.469 75.0466H613.466ZM614.301 70.5263H613.317L613.989 69.0122H615.27L614.305 70.5263H614.301Z" fill="white"/>
<path d="M619.892 75.976C619.594 75.976 619.333 75.9179 619.115 75.8017C618.894 75.6856 618.716 75.5185 618.578 75.2971C618.44 75.0756 618.345 74.8069 618.291 74.491H618.131L618.113 75.8526H617.049V69.4515H618.338V70.991C618.338 71.1326 618.327 71.2887 618.305 71.4521C618.284 71.6155 618.258 71.7861 618.229 71.9568C618.2 72.131 618.167 72.3126 618.131 72.5014H618.327C618.403 72.1964 618.512 71.935 618.643 71.7171C618.777 71.4993 618.948 71.3323 619.155 71.2161C619.362 71.0999 619.609 71.0418 619.903 71.0418C620.299 71.0418 620.636 71.1435 620.927 71.3468C621.217 71.5501 621.439 71.8369 621.595 72.2073C621.751 72.5776 621.827 73.0206 621.827 73.5325C621.827 74.0445 621.751 74.4584 621.598 74.8214C621.446 75.1845 621.225 75.4677 620.93 75.671C620.64 75.8744 620.291 75.976 619.892 75.976ZM619.445 74.9195C619.656 74.9195 619.838 74.8614 619.99 74.7452C620.146 74.629 620.266 74.462 620.353 74.2478C620.44 74.0336 620.484 73.783 620.484 73.4962C620.484 73.2094 620.44 72.9552 620.357 72.7483C620.273 72.5413 620.157 72.3779 620.008 72.2617C619.859 72.1419 619.678 72.0838 619.464 72.0838C619.318 72.0838 619.188 72.1093 619.064 72.1637C618.941 72.2182 618.835 72.2944 618.748 72.3888C618.661 72.4832 618.581 72.5885 618.52 72.7047C618.458 72.8209 618.411 72.9407 618.382 73.0641C618.353 73.1876 618.338 73.3038 618.338 73.42V73.5906C618.338 73.7286 618.36 73.8738 618.4 74.0299C618.443 74.1861 618.509 74.3313 618.603 74.4656C618.694 74.6 618.81 74.7089 618.948 74.796C619.086 74.8832 619.253 74.9267 619.449 74.9267L619.445 74.9195Z" fill="white"/>
<path d="M623.403 70.4463C623.152 70.4463 622.96 70.3919 622.826 70.2866C622.691 70.1776 622.626 70.0288 622.626 69.8291C622.626 69.6221 622.691 69.4624 622.822 69.3535C622.953 69.2445 623.145 69.1937 623.403 69.1937C623.661 69.1937 623.846 69.2482 623.984 69.3535C624.122 69.4587 624.191 69.6185 624.191 69.8291C624.191 70.0397 624.125 70.1849 623.991 70.2902C623.857 70.3955 623.661 70.4463 623.403 70.4463ZM622.757 75.8525V71.1543H624.046V75.8525H622.757Z" fill="white"/>
<path d="M625.237 75.8526V69.4515H626.5V75.8526H625.237Z" fill="white"/>
<path d="M748.706 70.234C747.914 70.234 747.218 70.15 746.618 69.982C746.03 69.814 745.532 69.568 745.124 69.244C744.728 68.908 744.434 68.5 744.242 68.02C744.05 67.54 743.966 66.982 743.99 66.346L745.484 66.022C745.436 66.646 745.538 67.168 745.79 67.588C746.042 68.008 746.426 68.326 746.942 68.542C747.458 68.746 748.064 68.848 748.76 68.848C749.432 68.848 750.002 68.764 750.47 68.596C750.938 68.428 751.286 68.194 751.514 67.894C751.754 67.594 751.874 67.252 751.874 66.868C751.874 66.436 751.736 66.094 751.46 65.842C751.184 65.59 750.812 65.398 750.344 65.266C749.888 65.122 749.378 64.99 748.814 64.87C748.262 64.75 747.71 64.612 747.158 64.456C746.606 64.3 746.108 64.102 745.664 63.862C745.232 63.61 744.878 63.286 744.602 62.89C744.338 62.482 744.206 61.966 744.206 61.342C744.206 60.634 744.38 60.022 744.728 59.506C745.088 58.99 745.592 58.594 746.24 58.318C746.888 58.03 747.65 57.886 748.526 57.886C749.39 57.886 750.158 58.024 750.83 58.3C751.514 58.576 752.054 58.984 752.45 59.524C752.846 60.052 753.056 60.706 753.08 61.486L751.532 61.864C751.532 61.432 751.454 61.054 751.298 60.73C751.154 60.394 750.95 60.124 750.686 59.92C750.422 59.704 750.104 59.542 749.732 59.434C749.36 59.314 748.952 59.254 748.508 59.254C747.968 59.254 747.494 59.338 747.086 59.506C746.678 59.674 746.36 59.902 746.132 60.19C745.904 60.478 745.79 60.82 745.79 61.216C745.79 61.684 745.952 62.056 746.276 62.332C746.612 62.596 747.044 62.806 747.572 62.962C748.1 63.118 748.664 63.262 749.264 63.394C749.78 63.502 750.284 63.634 750.776 63.79C751.28 63.934 751.736 64.132 752.144 64.384C752.552 64.624 752.876 64.942 753.116 65.338C753.356 65.734 753.476 66.238 753.476 66.85C753.476 67.534 753.296 68.128 752.936 68.632C752.588 69.136 752.06 69.532 751.352 69.82C750.644 70.096 749.762 70.234 748.706 70.234ZM759.844 70.234C759.112 70.234 758.464 70.126 757.9 69.91C757.348 69.682 756.88 69.358 756.496 68.938C756.112 68.518 755.824 68.02 755.632 67.444C755.44 66.868 755.344 66.22 755.344 65.5C755.344 64.768 755.44 64.096 755.632 63.484C755.824 62.872 756.106 62.338 756.478 61.882C756.85 61.426 757.306 61.078 757.846 60.838C758.386 60.586 759.004 60.46 759.7 60.46C760.312 60.46 760.87 60.562 761.374 60.766C761.878 60.97 762.304 61.288 762.652 61.72C763.012 62.14 763.282 62.674 763.462 63.322C763.642 63.958 763.714 64.708 763.678 65.572L756.37 65.626V64.51L762.688 64.456L762.13 65.212C762.19 64.456 762.118 63.832 761.914 63.34C761.71 62.848 761.416 62.476 761.032 62.224C760.66 61.972 760.216 61.846 759.7 61.846C759.148 61.846 758.662 61.99 758.242 62.278C757.822 62.566 757.498 62.98 757.27 63.52C757.054 64.06 756.946 64.714 756.946 65.482C756.946 66.586 757.192 67.432 757.684 68.02C758.176 68.596 758.908 68.884 759.88 68.884C760.252 68.884 760.576 68.842 760.852 68.758C761.14 68.662 761.38 68.536 761.572 68.38C761.776 68.212 761.938 68.02 762.058 67.804C762.19 67.588 762.292 67.354 762.364 67.102L763.804 67.444C763.696 67.876 763.528 68.266 763.3 68.614C763.084 68.95 762.808 69.238 762.472 69.478C762.148 69.718 761.77 69.904 761.338 70.036C760.906 70.168 760.408 70.234 759.844 70.234ZM766.008 70V64.96V60.694H767.484L767.34 63.934H767.646C767.754 63.226 767.922 62.614 768.15 62.098C768.378 61.582 768.678 61.18 769.05 60.892C769.434 60.604 769.908 60.46 770.472 60.46C770.592 60.46 770.73 60.472 770.886 60.496C771.042 60.508 771.222 60.55 771.426 60.622L771.336 62.332C771.156 62.26 770.976 62.212 770.796 62.188C770.616 62.152 770.442 62.134 770.274 62.134C769.806 62.134 769.398 62.284 769.05 62.584C768.714 62.884 768.432 63.292 768.204 63.808C767.976 64.312 767.79 64.882 767.646 65.518V70H766.008ZM776.027 70L772.697 60.712H774.515L777.053 68.614H777.305L779.825 60.712H781.607L778.295 70H776.027ZM783.393 70V60.694H785.031V70H783.393ZM784.221 59.074C783.837 59.074 783.549 58.996 783.357 58.84C783.165 58.684 783.069 58.45 783.069 58.138C783.069 57.826 783.165 57.592 783.357 57.436C783.549 57.28 783.831 57.202 784.203 57.202C784.587 57.202 784.875 57.28 785.067 57.436C785.259 57.592 785.355 57.826 785.355 58.138C785.355 58.438 785.259 58.672 785.067 58.84C784.875 58.996 784.593 59.074 784.221 59.074ZM791.871 70.234C791.055 70.234 790.359 70.102 789.783 69.838C789.219 69.574 788.757 69.22 788.397 68.776C788.049 68.332 787.791 67.822 787.623 67.246C787.467 66.67 787.389 66.07 787.389 65.446C787.389 64.762 787.479 64.12 787.659 63.52C787.839 62.92 788.109 62.392 788.469 61.936C788.841 61.468 789.297 61.108 789.837 60.856C790.389 60.592 791.031 60.46 791.763 60.46C792.471 60.46 793.095 60.586 793.635 60.838C794.175 61.078 794.613 61.42 794.949 61.864C795.297 62.308 795.519 62.836 795.615 63.448L794.049 63.88C794.025 63.544 793.923 63.22 793.743 62.908C793.575 62.596 793.323 62.344 792.987 62.152C792.651 61.948 792.237 61.846 791.745 61.846C791.277 61.846 790.875 61.936 790.539 62.116C790.215 62.296 789.939 62.548 789.711 62.872C789.495 63.196 789.327 63.574 789.207 64.006C789.099 64.438 789.045 64.906 789.045 65.41C789.045 66.106 789.141 66.712 789.333 67.228C789.537 67.744 789.849 68.146 790.269 68.434C790.689 68.722 791.229 68.866 791.889 68.866C792.381 68.866 792.801 68.782 793.149 68.614C793.497 68.434 793.773 68.188 793.977 67.876C794.181 67.552 794.313 67.174 794.373 66.742L795.885 67.084C795.801 67.6 795.645 68.056 795.417 68.452C795.189 68.848 794.901 69.178 794.553 69.442C794.205 69.694 793.803 69.886 793.347 70.018C792.903 70.162 792.411 70.234 791.871 70.234ZM789.855 74.176L790.071 73.222C790.287 73.258 790.551 73.294 790.863 73.33C791.175 73.366 791.481 73.372 791.781 73.348C792.081 73.324 792.333 73.246 792.537 73.114C792.741 72.994 792.843 72.802 792.843 72.538C792.843 72.43 792.819 72.322 792.771 72.214C792.723 72.118 792.627 72.034 792.483 71.962C792.339 71.89 792.117 71.836 791.817 71.8C791.517 71.764 791.115 71.764 790.611 71.8L790.845 69.946H791.799L791.691 71.278C792.219 71.23 792.651 71.248 792.987 71.332C793.335 71.428 793.593 71.584 793.761 71.8C793.929 72.016 794.013 72.292 794.013 72.628C794.013 73.096 793.869 73.456 793.581 73.708C793.305 73.972 792.951 74.152 792.519 74.248C792.087 74.356 791.631 74.398 791.151 74.374C790.671 74.35 790.239 74.284 789.855 74.176ZM801.75 70.234C800.862 70.234 800.076 70.042 799.392 69.658C798.72 69.262 798.192 68.698 797.808 67.966C797.436 67.234 797.25 66.346 797.25 65.302C797.25 64.222 797.448 63.328 797.844 62.62C798.252 61.9 798.792 61.36 799.464 61C800.136 60.64 800.886 60.46 801.714 60.46C802.578 60.46 803.346 60.652 804.018 61.036C804.702 61.408 805.242 61.96 805.638 62.692C806.034 63.412 806.232 64.306 806.232 65.374C806.232 66.442 806.034 67.336 805.638 68.056C805.254 68.776 804.72 69.322 804.036 69.694C803.364 70.054 802.602 70.234 801.75 70.234ZM801.822 68.884C802.398 68.884 802.89 68.746 803.298 68.47C803.718 68.182 804.036 67.78 804.252 67.264C804.48 66.748 804.594 66.136 804.594 65.428C804.594 64.696 804.474 64.066 804.234 63.538C804.006 62.998 803.676 62.584 803.244 62.296C802.812 61.996 802.29 61.846 801.678 61.846C801.126 61.846 800.64 61.978 800.22 62.242C799.8 62.506 799.476 62.896 799.248 63.412C799.02 63.916 798.906 64.534 798.906 65.266C798.906 66.394 799.164 67.282 799.68 67.93C800.208 68.566 800.922 68.884 801.822 68.884ZM812.056 70.234C811.408 70.234 810.832 70.162 810.328 70.018C809.824 69.886 809.404 69.694 809.068 69.442C808.732 69.178 808.474 68.866 808.294 68.506C808.114 68.146 808.018 67.75 808.006 67.318L809.392 66.958C809.368 67.354 809.464 67.702 809.68 68.002C809.908 68.29 810.226 68.512 810.634 68.668C811.054 68.824 811.558 68.902 812.146 68.902C812.854 68.902 813.4 68.782 813.784 68.542C814.18 68.302 814.378 67.972 814.378 67.552C814.378 67.216 814.27 66.958 814.054 66.778C813.838 66.586 813.538 66.436 813.154 66.328C812.782 66.208 812.338 66.1 811.822 66.004C811.39 65.908 810.958 65.8 810.526 65.68C810.094 65.56 809.698 65.404 809.338 65.212C808.99 65.008 808.708 64.744 808.492 64.42C808.276 64.096 808.168 63.694 808.168 63.214C808.168 62.65 808.318 62.164 808.618 61.756C808.918 61.348 809.344 61.03 809.896 60.802C810.448 60.574 811.108 60.46 811.876 60.46C812.644 60.46 813.298 60.58 813.838 60.82C814.378 61.048 814.804 61.372 815.116 61.792C815.428 62.212 815.602 62.704 815.638 63.268L814.216 63.628C814.204 63.232 814.096 62.896 813.892 62.62C813.7 62.344 813.424 62.14 813.064 62.008C812.704 61.864 812.284 61.792 811.804 61.792C811.168 61.792 810.664 61.912 810.292 62.152C809.92 62.392 809.734 62.722 809.734 63.142C809.734 63.454 809.842 63.706 810.058 63.898C810.286 64.09 810.592 64.24 810.976 64.348C811.36 64.456 811.786 64.564 812.254 64.672C812.734 64.768 813.19 64.876 813.622 64.996C814.066 65.116 814.462 65.272 814.81 65.464C815.158 65.656 815.434 65.914 815.638 66.238C815.842 66.55 815.944 66.952 815.944 67.444C815.944 68.056 815.782 68.572 815.458 68.992C815.134 69.4 814.678 69.712 814.09 69.928C813.514 70.132 812.836 70.234 812.056 70.234Z" fill="#FDFDFF"/>
<path d="M856.628 72.466C855.872 72.598 855.218 72.676 854.666 72.7C854.126 72.736 853.634 72.736 853.19 72.7C852.758 72.676 852.326 72.628 851.894 72.556C851.474 72.484 851.006 72.412 850.49 72.34C849.986 72.268 849.392 72.214 848.708 72.178C848.036 72.142 847.22 72.136 846.26 72.16V70.702C846.692 70.702 847.124 70.696 847.556 70.684C847.988 70.684 848.414 70.66 848.834 70.612C849.266 70.576 849.686 70.516 850.094 70.432C850.514 70.36 850.922 70.258 851.318 70.126C851.714 69.994 852.092 69.832 852.452 69.64V69.406C851.66 69.646 850.934 69.742 850.274 69.694C849.614 69.646 849.026 69.478 848.51 69.19C847.994 68.902 847.562 68.506 847.214 68.002C846.866 67.498 846.596 66.91 846.404 66.238C846.212 65.566 846.116 64.822 846.116 64.006C846.116 63.118 846.23 62.302 846.458 61.558C846.698 60.814 847.046 60.166 847.502 59.614C847.958 59.062 848.516 58.636 849.176 58.336C849.836 58.036 850.592 57.886 851.444 57.886C852.524 57.886 853.46 58.132 854.252 58.624C855.056 59.116 855.674 59.824 856.106 60.748C856.55 61.66 856.772 62.77 856.772 64.078C856.772 65.062 856.64 65.926 856.376 66.67C856.124 67.402 855.74 68.032 855.224 68.56C854.72 69.088 854.078 69.544 853.298 69.928C852.53 70.3 851.624 70.618 850.58 70.882V71.08C851.156 71.14 851.678 71.188 852.146 71.224C852.614 71.272 853.076 71.296 853.532 71.296C853.988 71.308 854.462 71.29 854.954 71.242C855.446 71.194 856.004 71.11 856.628 70.99V72.466ZM851.48 68.776C852.272 68.776 852.938 68.596 853.478 68.236C854.018 67.864 854.42 67.33 854.684 66.634C854.96 65.938 855.098 65.098 855.098 64.114C855.098 63.082 854.948 62.212 854.648 61.504C854.36 60.796 853.94 60.262 853.388 59.902C852.848 59.53 852.194 59.344 851.426 59.344C850.646 59.344 849.986 59.53 849.446 59.902C848.906 60.274 848.498 60.814 848.222 61.522C847.946 62.218 847.808 63.07 847.808 64.078C847.808 65.11 847.952 65.98 848.24 66.688C848.528 67.384 848.948 67.906 849.5 68.254C850.052 68.602 850.712 68.776 851.48 68.776ZM862.365 70.234C861.333 70.234 860.553 69.874 860.025 69.154C859.497 68.434 859.233 67.36 859.233 65.932V60.694H860.889V65.788C860.889 66.796 861.045 67.546 861.357 68.038C861.669 68.53 862.161 68.776 862.833 68.776C863.205 68.776 863.535 68.686 863.823 68.506C864.123 68.326 864.387 68.068 864.615 67.732C864.843 67.396 865.029 67 865.173 66.544C865.317 66.076 865.413 65.572 865.461 65.032V60.694H867.099V66.112V70H865.641L865.785 67.012H865.515C865.359 67.756 865.137 68.368 864.849 68.848C864.573 69.316 864.225 69.664 863.805 69.892C863.385 70.12 862.905 70.234 862.365 70.234ZM873.938 70.234C873.206 70.234 872.558 70.126 871.994 69.91C871.442 69.682 870.974 69.358 870.59 68.938C870.206 68.518 869.918 68.02 869.726 67.444C869.534 66.868 869.438 66.22 869.438 65.5C869.438 64.768 869.534 64.096 869.726 63.484C869.918 62.872 870.2 62.338 870.572 61.882C870.944 61.426 871.4 61.078 871.94 60.838C872.48 60.586 873.098 60.46 873.794 60.46C874.406 60.46 874.964 60.562 875.468 60.766C875.972 60.97 876.398 61.288 876.746 61.72C877.106 62.14 877.376 62.674 877.556 63.322C877.736 63.958 877.808 64.708 877.772 65.572L870.464 65.626V64.51L876.782 64.456L876.224 65.212C876.284 64.456 876.212 63.832 876.008 63.34C875.804 62.848 875.51 62.476 875.126 62.224C874.754 61.972 874.31 61.846 873.794 61.846C873.242 61.846 872.756 61.99 872.336 62.278C871.916 62.566 871.592 62.98 871.364 63.52C871.148 64.06 871.04 64.714 871.04 65.482C871.04 66.586 871.286 67.432 871.778 68.02C872.27 68.596 873.002 68.884 873.974 68.884C874.346 68.884 874.67 68.842 874.946 68.758C875.234 68.662 875.474 68.536 875.666 68.38C875.87 68.212 876.032 68.02 876.152 67.804C876.284 67.588 876.386 67.354 876.458 67.102L877.898 67.444C877.79 67.876 877.622 68.266 877.394 68.614C877.178 68.95 876.902 69.238 876.566 69.478C876.242 69.718 875.864 69.904 875.432 70.036C875 70.168 874.502 70.234 873.938 70.234ZM880.102 70V64.24V60.694H881.56L881.398 63.646H881.704C881.86 62.938 882.07 62.35 882.334 61.882C882.598 61.402 882.922 61.048 883.306 60.82C883.702 60.58 884.152 60.46 884.656 60.46C885.256 60.46 885.748 60.61 886.132 60.91C886.516 61.198 886.798 61.576 886.978 62.044C887.17 62.512 887.266 63.028 887.266 63.592H887.554C887.686 62.92 887.89 62.35 888.166 61.882C888.442 61.414 888.784 61.06 889.192 60.82C889.6 60.58 890.068 60.46 890.596 60.46C891.076 60.46 891.496 60.556 891.856 60.748C892.216 60.94 892.522 61.228 892.774 61.612C893.026 61.984 893.212 62.446 893.332 62.998C893.452 63.55 893.512 64.186 893.512 64.906V70H891.874V65.122C891.874 64.414 891.808 63.826 891.676 63.358C891.544 62.878 891.346 62.524 891.082 62.296C890.83 62.056 890.506 61.936 890.11 61.936C889.666 61.936 889.264 62.092 888.904 62.404C888.556 62.704 888.268 63.13 888.04 63.682C887.824 64.222 887.68 64.84 887.608 65.536V70H886.006V65.284C886.006 64.54 885.94 63.922 885.808 63.43C885.676 62.938 885.478 62.566 885.214 62.314C884.962 62.062 884.632 61.936 884.224 61.936C883.744 61.936 883.33 62.104 882.982 62.44C882.634 62.764 882.352 63.202 882.136 63.754C881.932 64.306 881.8 64.924 881.74 65.608V70H880.102ZM902.898 70.234C902.394 70.234 901.938 70.138 901.53 69.946C901.122 69.742 900.798 69.448 900.558 69.064C900.318 68.668 900.198 68.17 900.198 67.57C900.198 67.126 900.276 66.736 900.432 66.4C900.6 66.064 900.852 65.776 901.188 65.536C901.536 65.296 901.98 65.098 902.52 64.942C903.06 64.786 903.72 64.654 904.5 64.546C904.944 64.486 905.304 64.426 905.58 64.366C905.868 64.306 906.078 64.21 906.21 64.078C906.342 63.934 906.408 63.724 906.408 63.448C906.408 62.992 906.252 62.608 905.94 62.296C905.628 61.984 905.136 61.828 904.464 61.828C904.116 61.828 903.762 61.888 903.402 62.008C903.042 62.128 902.724 62.332 902.448 62.62C902.184 62.896 902.016 63.286 901.944 63.79L900.432 63.286C900.528 62.854 900.684 62.464 900.9 62.116C901.128 61.768 901.416 61.474 901.764 61.234C902.112 60.982 902.514 60.79 902.97 60.658C903.438 60.526 903.954 60.46 904.518 60.46C905.298 60.46 905.946 60.592 906.462 60.856C906.99 61.12 907.38 61.528 907.632 62.08C907.896 62.62 908.028 63.316 908.028 64.168V66.238C908.028 66.61 908.034 67.018 908.046 67.462C908.07 67.894 908.1 68.332 908.136 68.776C908.172 69.208 908.208 69.616 908.244 70H906.732C906.696 69.616 906.66 69.232 906.624 68.848C906.6 68.464 906.582 68.08 906.57 67.696H906.336C906.156 68.14 905.916 68.554 905.616 68.938C905.316 69.322 904.938 69.634 904.482 69.874C904.038 70.114 903.51 70.234 902.898 70.234ZM903.384 68.902C903.648 68.902 903.912 68.86 904.176 68.776C904.452 68.692 904.722 68.554 904.986 68.362C905.262 68.17 905.52 67.924 905.76 67.624C906.012 67.324 906.234 66.964 906.426 66.544V64.744L906.894 64.834C906.702 65.026 906.444 65.17 906.12 65.266C905.808 65.362 905.46 65.44 905.076 65.5C904.692 65.56 904.308 65.626 903.924 65.698C903.54 65.758 903.186 65.854 902.862 65.986C902.55 66.106 902.298 66.28 902.106 66.508C901.914 66.736 901.818 67.048 901.818 67.444C901.818 67.924 901.962 68.29 902.25 68.542C902.538 68.782 902.916 68.902 903.384 68.902ZM913.674 70.18C912.81 70.18 912.168 69.946 911.748 69.478C911.328 69.01 911.118 68.296 911.118 67.336V62.062H909.714L909.732 60.694H910.614C910.914 60.694 911.13 60.64 911.262 60.532C911.406 60.424 911.49 60.244 911.514 59.992L911.694 58.588H912.702V60.694H915.384V62.08H912.702V67.3C912.702 67.78 912.81 68.128 913.026 68.344C913.254 68.548 913.578 68.65 913.998 68.65C914.226 68.65 914.46 68.62 914.7 68.56C914.952 68.5 915.198 68.38 915.438 68.2V69.838C915.09 69.97 914.766 70.06 914.466 70.108C914.178 70.156 913.914 70.18 913.674 70.18ZM921.346 70.234C920.614 70.234 919.966 70.126 919.402 69.91C918.85 69.682 918.382 69.358 917.998 68.938C917.614 68.518 917.326 68.02 917.134 67.444C916.942 66.868 916.846 66.22 916.846 65.5C916.846 64.768 916.942 64.096 917.134 63.484C917.326 62.872 917.608 62.338 917.98 61.882C918.352 61.426 918.808 61.078 919.348 60.838C919.888 60.586 920.506 60.46 921.202 60.46C921.814 60.46 922.372 60.562 922.876 60.766C923.38 60.97 923.806 61.288 924.154 61.72C924.514 62.14 924.784 62.674 924.964 63.322C925.144 63.958 925.216 64.708 925.18 65.572L917.872 65.626V64.51L924.19 64.456L923.632 65.212C923.692 64.456 923.62 63.832 923.416 63.34C923.212 62.848 922.918 62.476 922.534 62.224C922.162 61.972 921.718 61.846 921.202 61.846C920.65 61.846 920.164 61.99 919.744 62.278C919.324 62.566 919 62.98 918.772 63.52C918.556 64.06 918.448 64.714 918.448 65.482C918.448 66.586 918.694 67.432 919.186 68.02C919.678 68.596 920.41 68.884 921.382 68.884C921.754 68.884 922.078 68.842 922.354 68.758C922.642 68.662 922.882 68.536 923.074 68.38C923.278 68.212 923.44 68.02 923.56 67.804C923.692 67.588 923.794 67.354 923.866 67.102L925.306 67.444C925.198 67.876 925.03 68.266 924.802 68.614C924.586 68.95 924.31 69.238 923.974 69.478C923.65 69.718 923.272 69.904 922.84 70.036C922.408 70.168 921.91 70.234 921.346 70.234ZM927.51 70V64.222V60.694H928.986L928.824 63.646H929.13C929.298 62.914 929.52 62.314 929.796 61.846C930.084 61.378 930.444 61.03 930.876 60.802C931.308 60.574 931.812 60.46 932.388 60.46C933.42 60.46 934.2 60.832 934.728 61.576C935.268 62.308 935.538 63.406 935.538 64.87V70H933.882V65.014C933.882 63.958 933.714 63.178 933.378 62.674C933.054 62.17 932.574 61.918 931.938 61.918C931.362 61.918 930.87 62.098 930.462 62.458C930.066 62.818 929.754 63.292 929.526 63.88C929.298 64.468 929.172 65.104 929.148 65.788V70H927.51ZM941.544 70.234C940.752 70.234 940.074 70.024 939.51 69.604C938.946 69.184 938.514 68.608 938.214 67.876C937.926 67.144 937.782 66.304 937.782 65.356C937.782 64.408 937.926 63.568 938.214 62.836C938.502 62.104 938.922 61.528 939.474 61.108C940.026 60.688 940.704 60.478 941.508 60.478C942.168 60.478 942.708 60.616 943.128 60.892C943.548 61.168 943.884 61.528 944.136 61.972C944.4 62.404 944.592 62.878 944.712 63.394H945.036C944.976 63.046 944.922 62.686 944.874 62.314C944.826 61.93 944.784 61.558 944.748 61.198C944.712 60.826 944.694 60.496 944.694 60.208V57.4H946.35V65.41V70H944.874L944.964 67.48H944.676C944.532 68.02 944.328 68.5 944.064 68.92C943.8 69.328 943.464 69.652 943.056 69.892C942.648 70.12 942.144 70.234 941.544 70.234ZM941.922 68.794C942.354 68.794 942.744 68.692 943.092 68.488C943.44 68.284 943.734 68.02 943.974 67.696C944.214 67.36 944.394 67 944.514 66.616C944.646 66.232 944.712 65.86 944.712 65.5V65.284C944.712 65.032 944.676 64.762 944.604 64.474C944.532 64.174 944.424 63.874 944.28 63.574C944.148 63.274 943.968 62.998 943.74 62.746C943.524 62.482 943.266 62.278 942.966 62.134C942.666 61.978 942.33 61.9 941.958 61.9C941.418 61.9 940.962 62.056 940.59 62.368C940.23 62.668 939.954 63.082 939.762 63.61C939.582 64.138 939.492 64.732 939.492 65.392C939.492 66.076 939.588 66.676 939.78 67.192C939.972 67.696 940.248 68.092 940.608 68.38C940.98 68.656 941.418 68.794 941.922 68.794ZM953.197 70.234C952.465 70.234 951.817 70.126 951.253 69.91C950.701 69.682 950.233 69.358 949.849 68.938C949.465 68.518 949.177 68.02 948.985 67.444C948.793 66.868 948.697 66.22 948.697 65.5C948.697 64.768 948.793 64.096 948.985 63.484C949.177 62.872 949.459 62.338 949.831 61.882C950.203 61.426 950.659 61.078 951.199 60.838C951.739 60.586 952.357 60.46 953.053 60.46C953.665 60.46 954.223 60.562 954.727 60.766C955.231 60.97 955.657 61.288 956.005 61.72C956.365 62.14 956.635 62.674 956.815 63.322C956.995 63.958 957.067 64.708 957.031 65.572L949.723 65.626V64.51L956.041 64.456L955.483 65.212C955.543 64.456 955.471 63.832 955.267 63.34C955.063 62.848 954.769 62.476 954.385 62.224C954.013 61.972 953.569 61.846 953.053 61.846C952.501 61.846 952.015 61.99 951.595 62.278C951.175 62.566 950.851 62.98 950.623 63.52C950.407 64.06 950.299 64.714 950.299 65.482C950.299 66.586 950.545 67.432 951.037 68.02C951.529 68.596 952.261 68.884 953.233 68.884C953.605 68.884 953.929 68.842 954.205 68.758C954.493 68.662 954.733 68.536 954.925 68.38C955.129 68.212 955.291 68.02 955.411 67.804C955.543 67.588 955.645 67.354 955.717 67.102L957.157 67.444C957.049 67.876 956.881 68.266 956.653 68.614C956.437 68.95 956.161 69.238 955.825 69.478C955.501 69.718 955.123 69.904 954.691 70.036C954.259 70.168 953.761 70.234 953.197 70.234ZM959.361 70V64.24V60.694H960.819L960.657 63.646H960.963C961.119 62.938 961.329 62.35 961.593 61.882C961.857 61.402 962.181 61.048 962.565 60.82C962.961 60.58 963.411 60.46 963.915 60.46C964.515 60.46 965.007 60.61 965.391 60.91C965.775 61.198 966.057 61.576 966.237 62.044C966.429 62.512 966.525 63.028 966.525 63.592H966.813C966.945 62.92 967.149 62.35 967.425 61.882C967.701 61.414 968.043 61.06 968.451 60.82C968.859 60.58 969.327 60.46 969.855 60.46C970.335 60.46 970.755 60.556 971.115 60.748C971.475 60.94 971.781 61.228 972.033 61.612C972.285 61.984 972.471 62.446 972.591 62.998C972.711 63.55 972.771 64.186 972.771 64.906V70H971.133V65.122C971.133 64.414 971.067 63.826 970.935 63.358C970.803 62.878 970.605 62.524 970.341 62.296C970.089 62.056 969.765 61.936 969.369 61.936C968.925 61.936 968.523 62.092 968.163 62.404C967.815 62.704 967.527 63.13 967.299 63.682C967.083 64.222 966.939 64.84 966.867 65.536V70H965.265V65.284C965.265 64.54 965.199 63.922 965.067 63.43C964.935 62.938 964.737 62.566 964.473 62.314C964.221 62.062 963.891 61.936 963.483 61.936C963.003 61.936 962.589 62.104 962.241 62.44C961.893 62.764 961.611 63.202 961.395 63.754C961.191 64.306 961.059 64.924 960.999 65.608V70H959.361ZM979.459 70.234C978.571 70.234 977.785 70.042 977.101 69.658C976.429 69.262 975.901 68.698 975.517 67.966C975.145 67.234 974.959 66.346 974.959 65.302C974.959 64.222 975.157 63.328 975.553 62.62C975.961 61.9 976.501 61.36 977.173 61C977.845 60.64 978.595 60.46 979.423 60.46C980.287 60.46 981.055 60.652 981.727 61.036C982.411 61.408 982.951 61.96 983.347 62.692C983.743 63.412 983.941 64.306 983.941 65.374C983.941 66.442 983.743 67.336 983.347 68.056C982.963 68.776 982.429 69.322 981.745 69.694C981.073 70.054 980.311 70.234 979.459 70.234ZM979.531 68.884C980.107 68.884 980.599 68.746 981.007 68.47C981.427 68.182 981.745 67.78 981.961 67.264C982.189 66.748 982.303 66.136 982.303 65.428C982.303 64.696 982.183 64.066 981.943 63.538C981.715 62.998 981.385 62.584 980.953 62.296C980.521 61.996 979.999 61.846 979.387 61.846C978.835 61.846 978.349 61.978 977.929 62.242C977.509 62.506 977.185 62.896 976.957 63.412C976.729 63.916 976.615 64.534 976.615 65.266C976.615 66.394 976.873 67.282 977.389 67.93C977.917 68.566 978.631 68.884 979.531 68.884ZM989.765 70.234C989.117 70.234 988.541 70.162 988.037 70.018C987.533 69.886 987.113 69.694 986.777 69.442C986.441 69.178 986.183 68.866 986.003 68.506C985.823 68.146 985.727 67.75 985.715 67.318L987.101 66.958C987.077 67.354 987.173 67.702 987.389 68.002C987.617 68.29 987.935 68.512 988.343 68.668C988.763 68.824 989.267 68.902 989.855 68.902C990.563 68.902 991.109 68.782 991.493 68.542C991.889 68.302 992.087 67.972 992.087 67.552C992.087 67.216 991.979 66.958 991.763 66.778C991.547 66.586 991.247 66.436 990.863 66.328C990.491 66.208 990.047 66.1 989.531 66.004C989.099 65.908 988.667 65.8 988.235 65.68C987.803 65.56 987.407 65.404 987.047 65.212C986.699 65.008 986.417 64.744 986.201 64.42C985.985 64.096 985.877 63.694 985.877 63.214C985.877 62.65 986.027 62.164 986.327 61.756C986.627 61.348 987.053 61.03 987.605 60.802C988.157 60.574 988.817 60.46 989.585 60.46C990.353 60.46 991.007 60.58 991.547 60.82C992.087 61.048 992.513 61.372 992.825 61.792C993.137 62.212 993.311 62.704 993.347 63.268L991.925 63.628C991.913 63.232 991.805 62.896 991.601 62.62C991.409 62.344 991.133 62.14 990.773 62.008C990.413 61.864 989.993 61.792 989.513 61.792C988.877 61.792 988.373 61.912 988.001 62.152C987.629 62.392 987.443 62.722 987.443 63.142C987.443 63.454 987.551 63.706 987.767 63.898C987.995 64.09 988.301 64.24 988.685 64.348C989.069 64.456 989.495 64.564 989.963 64.672C990.443 64.768 990.899 64.876 991.331 64.996C991.775 65.116 992.171 65.272 992.519 65.464C992.867 65.656 993.143 65.914 993.347 66.238C993.551 66.55 993.653 66.952 993.653 67.444C993.653 68.056 993.491 68.572 993.167 68.992C992.843 69.4 992.387 69.712 991.799 69.928C991.223 70.132 990.545 70.234 989.765 70.234Z" fill="#FDFDFF"/>
<path d="M1028.71 70.234C1027.91 70.234 1027.22 70.15 1026.62 69.982C1026.03 69.814 1025.53 69.568 1025.12 69.244C1024.73 68.908 1024.43 68.5 1024.24 68.02C1024.05 67.54 1023.97 66.982 1023.99 66.346L1025.48 66.022C1025.44 66.646 1025.54 67.168 1025.79 67.588C1026.04 68.008 1026.43 68.326 1026.94 68.542C1027.46 68.746 1028.06 68.848 1028.76 68.848C1029.43 68.848 1030 68.764 1030.47 68.596C1030.94 68.428 1031.29 68.194 1031.51 67.894C1031.75 67.594 1031.87 67.252 1031.87 66.868C1031.87 66.436 1031.74 66.094 1031.46 65.842C1031.18 65.59 1030.81 65.398 1030.34 65.266C1029.89 65.122 1029.38 64.99 1028.81 64.87C1028.26 64.75 1027.71 64.612 1027.16 64.456C1026.61 64.3 1026.11 64.102 1025.66 63.862C1025.23 63.61 1024.88 63.286 1024.6 62.89C1024.34 62.482 1024.21 61.966 1024.21 61.342C1024.21 60.634 1024.38 60.022 1024.73 59.506C1025.09 58.99 1025.59 58.594 1026.24 58.318C1026.89 58.03 1027.65 57.886 1028.53 57.886C1029.39 57.886 1030.16 58.024 1030.83 58.3C1031.51 58.576 1032.05 58.984 1032.45 59.524C1032.85 60.052 1033.06 60.706 1033.08 61.486L1031.53 61.864C1031.53 61.432 1031.45 61.054 1031.3 60.73C1031.15 60.394 1030.95 60.124 1030.69 59.92C1030.42 59.704 1030.1 59.542 1029.73 59.434C1029.36 59.314 1028.95 59.254 1028.51 59.254C1027.97 59.254 1027.49 59.338 1027.09 59.506C1026.68 59.674 1026.36 59.902 1026.13 60.19C1025.9 60.478 1025.79 60.82 1025.79 61.216C1025.79 61.684 1025.95 62.056 1026.28 62.332C1026.61 62.596 1027.04 62.806 1027.57 62.962C1028.1 63.118 1028.66 63.262 1029.26 63.394C1029.78 63.502 1030.28 63.634 1030.78 63.79C1031.28 63.934 1031.74 64.132 1032.14 64.384C1032.55 64.624 1032.88 64.942 1033.12 65.338C1033.36 65.734 1033.48 66.238 1033.48 66.85C1033.48 67.534 1033.3 68.128 1032.94 68.632C1032.59 69.136 1032.06 69.532 1031.35 69.82C1030.64 70.096 1029.76 70.234 1028.71 70.234ZM1039.84 70.234C1038.96 70.234 1038.17 70.042 1037.49 69.658C1036.81 69.262 1036.29 68.698 1035.9 67.966C1035.53 67.234 1035.34 66.346 1035.34 65.302C1035.34 64.222 1035.54 63.328 1035.94 62.62C1036.35 61.9 1036.89 61.36 1037.56 61C1038.23 60.64 1038.98 60.46 1039.81 60.46C1040.67 60.46 1041.44 60.652 1042.11 61.036C1042.8 61.408 1043.34 61.96 1043.73 62.692C1044.13 63.412 1044.33 64.306 1044.33 65.374C1044.33 66.442 1044.13 67.336 1043.73 68.056C1043.35 68.776 1042.81 69.322 1042.13 69.694C1041.46 70.054 1040.7 70.234 1039.84 70.234ZM1039.92 68.884C1040.49 68.884 1040.98 68.746 1041.39 68.47C1041.81 68.182 1042.13 67.78 1042.35 67.264C1042.57 66.748 1042.69 66.136 1042.69 65.428C1042.69 64.696 1042.57 64.066 1042.33 63.538C1042.1 62.998 1041.77 62.584 1041.34 62.296C1040.91 61.996 1040.38 61.846 1039.77 61.846C1039.22 61.846 1038.73 61.978 1038.31 62.242C1037.89 62.506 1037.57 62.896 1037.34 63.412C1037.11 63.916 1037 64.534 1037 65.266C1037 66.394 1037.26 67.282 1037.77 67.93C1038.3 68.566 1039.02 68.884 1039.92 68.884ZM1051.48 70.234C1050.88 70.234 1050.37 70.114 1049.93 69.874C1049.51 69.634 1049.17 69.31 1048.91 68.902C1048.66 68.482 1048.46 68.008 1048.33 67.48H1048.04L1048.13 70H1046.66V65.41V57.4H1048.31V60.316C1048.31 60.628 1048.3 60.958 1048.26 61.306C1048.24 61.642 1048.19 61.99 1048.13 62.35C1048.09 62.71 1048.03 63.058 1047.97 63.394H1048.3C1048.43 62.89 1048.62 62.416 1048.87 61.972C1049.12 61.528 1049.46 61.168 1049.88 60.892C1050.31 60.616 1050.85 60.478 1051.48 60.478C1052.27 60.478 1052.95 60.688 1053.5 61.108C1054.06 61.516 1054.49 62.086 1054.79 62.818C1055.09 63.55 1055.24 64.402 1055.24 65.374C1055.24 66.31 1055.09 67.144 1054.79 67.876C1054.51 68.608 1054.08 69.184 1053.52 69.604C1052.96 70.024 1052.29 70.234 1051.48 70.234ZM1051.09 68.794C1051.6 68.794 1052.04 68.656 1052.4 68.38C1052.76 68.104 1053.04 67.708 1053.23 67.192C1053.43 66.676 1053.53 66.076 1053.53 65.392C1053.53 64.72 1053.44 64.126 1053.25 63.61C1053.05 63.082 1052.78 62.668 1052.42 62.368C1052.06 62.056 1051.61 61.9 1051.09 61.9C1050.7 61.9 1050.36 61.978 1050.06 62.134C1049.76 62.278 1049.5 62.476 1049.27 62.728C1049.05 62.98 1048.87 63.256 1048.73 63.556C1048.58 63.856 1048.48 64.156 1048.4 64.456C1048.33 64.756 1048.3 65.032 1048.3 65.284V65.5C1048.3 65.86 1048.36 66.232 1048.48 66.616C1048.61 67 1048.79 67.36 1049.03 67.696C1049.27 68.02 1049.57 68.284 1049.92 68.488C1050.26 68.692 1050.65 68.794 1051.09 68.794ZM1057.61 70V64.96V60.694H1059.09L1058.94 63.934H1059.25C1059.36 63.226 1059.52 62.614 1059.75 62.098C1059.98 61.582 1060.28 61.18 1060.65 60.892C1061.04 60.604 1061.51 60.46 1062.07 60.46C1062.19 60.46 1062.33 60.472 1062.49 60.496C1062.64 60.508 1062.82 60.55 1063.03 60.622L1062.94 62.332C1062.76 62.26 1062.58 62.212 1062.4 62.188C1062.22 62.152 1062.04 62.134 1061.88 62.134C1061.41 62.134 1061 62.284 1060.65 62.584C1060.32 62.884 1060.03 63.292 1059.81 63.808C1059.58 64.312 1059.39 64.882 1059.25 65.518V70H1057.61ZM1068.64 70.234C1067.9 70.234 1067.26 70.126 1066.69 69.91C1066.14 69.682 1065.67 69.358 1065.29 68.938C1064.9 68.518 1064.62 68.02 1064.42 67.444C1064.23 66.868 1064.14 66.22 1064.14 65.5C1064.14 64.768 1064.23 64.096 1064.42 63.484C1064.62 62.872 1064.9 62.338 1065.27 61.882C1065.64 61.426 1066.1 61.078 1066.64 60.838C1067.18 60.586 1067.8 60.46 1068.49 60.46C1069.1 60.46 1069.66 60.562 1070.17 60.766C1070.67 60.97 1071.1 61.288 1071.44 61.72C1071.8 62.14 1072.07 62.674 1072.25 63.322C1072.43 63.958 1072.51 64.708 1072.47 65.572L1065.16 65.626V64.51L1071.48 64.456L1070.92 65.212C1070.98 64.456 1070.91 63.832 1070.71 63.34C1070.5 62.848 1070.21 62.476 1069.82 62.224C1069.45 61.972 1069.01 61.846 1068.49 61.846C1067.94 61.846 1067.45 61.99 1067.03 62.278C1066.61 62.566 1066.29 62.98 1066.06 63.52C1065.85 64.06 1065.74 64.714 1065.74 65.482C1065.74 66.586 1065.98 67.432 1066.48 68.02C1066.97 68.596 1067.7 68.884 1068.67 68.884C1069.04 68.884 1069.37 68.842 1069.64 68.758C1069.93 68.662 1070.17 68.536 1070.36 68.38C1070.57 68.212 1070.73 68.02 1070.85 67.804C1070.98 67.588 1071.08 67.354 1071.16 67.102L1072.6 67.444C1072.49 67.876 1072.32 68.266 1072.09 68.614C1071.88 68.95 1071.6 69.238 1071.26 69.478C1070.94 69.718 1070.56 69.904 1070.13 70.036C1069.7 70.168 1069.2 70.234 1068.64 70.234ZM1079.35 70V64.222V60.694H1080.83L1080.67 63.646H1080.97C1081.14 62.914 1081.36 62.314 1081.64 61.846C1081.93 61.378 1082.29 61.03 1082.72 60.802C1083.15 60.574 1083.66 60.46 1084.23 60.46C1085.26 60.46 1086.04 60.832 1086.57 61.576C1087.11 62.308 1087.38 63.406 1087.38 64.87V70H1085.73V65.014C1085.73 63.958 1085.56 63.178 1085.22 62.674C1084.9 62.17 1084.42 61.918 1083.78 61.918C1083.21 61.918 1082.71 62.098 1082.31 62.458C1081.91 62.818 1081.6 63.292 1081.37 63.88C1081.14 64.468 1081.02 65.104 1080.99 65.788V70H1079.35ZM1094.07 70.234C1093.18 70.234 1092.4 70.042 1091.71 69.658C1091.04 69.262 1090.51 68.698 1090.13 67.966C1089.76 67.234 1089.57 66.346 1089.57 65.302C1089.57 64.222 1089.77 63.328 1090.17 62.62C1090.57 61.9 1091.11 61.36 1091.79 61C1092.46 60.64 1093.21 60.46 1094.04 60.46C1094.9 60.46 1095.67 60.652 1096.34 61.036C1097.02 61.408 1097.56 61.96 1097.96 62.692C1098.36 63.412 1098.55 64.306 1098.55 65.374C1098.55 66.442 1098.36 67.336 1097.96 68.056C1097.58 68.776 1097.04 69.322 1096.36 69.694C1095.69 70.054 1094.92 70.234 1094.07 70.234ZM1094.14 68.884C1094.72 68.884 1095.21 68.746 1095.62 68.47C1096.04 68.182 1096.36 67.78 1096.57 67.264C1096.8 66.748 1096.92 66.136 1096.92 65.428C1096.92 64.696 1096.8 64.066 1096.56 63.538C1096.33 62.998 1096 62.584 1095.57 62.296C1095.13 61.996 1094.61 61.846 1094 61.846C1093.45 61.846 1092.96 61.978 1092.54 62.242C1092.12 62.506 1091.8 62.896 1091.57 63.412C1091.34 63.916 1091.23 64.534 1091.23 65.266C1091.23 66.394 1091.49 67.282 1092 67.93C1092.53 68.566 1093.24 68.884 1094.14 68.884ZM1094.56 59.254H1093.17L1094.47 56.464H1096.27L1094.56 59.254ZM1104.38 70.234C1103.73 70.234 1103.15 70.162 1102.65 70.018C1102.15 69.886 1101.73 69.694 1101.39 69.442C1101.05 69.178 1100.8 68.866 1100.62 68.506C1100.44 68.146 1100.34 67.75 1100.33 67.318L1101.71 66.958C1101.69 67.354 1101.79 67.702 1102 68.002C1102.23 68.29 1102.55 68.512 1102.96 68.668C1103.38 68.824 1103.88 68.902 1104.47 68.902C1105.18 68.902 1105.72 68.782 1106.11 68.542C1106.5 68.302 1106.7 67.972 1106.7 67.552C1106.7 67.216 1106.59 66.958 1106.38 66.778C1106.16 66.586 1105.86 66.436 1105.48 66.328C1105.1 66.208 1104.66 66.1 1104.14 66.004C1103.71 65.908 1103.28 65.8 1102.85 65.68C1102.42 65.56 1102.02 65.404 1101.66 65.212C1101.31 65.008 1101.03 64.744 1100.81 64.42C1100.6 64.096 1100.49 63.694 1100.49 63.214C1100.49 62.65 1100.64 62.164 1100.94 61.756C1101.24 61.348 1101.67 61.03 1102.22 60.802C1102.77 60.574 1103.43 60.46 1104.2 60.46C1104.97 60.46 1105.62 60.58 1106.16 60.82C1106.7 61.048 1107.13 61.372 1107.44 61.792C1107.75 62.212 1107.92 62.704 1107.96 63.268L1106.54 63.628C1106.53 63.232 1106.42 62.896 1106.21 62.62C1106.02 62.344 1105.75 62.14 1105.39 62.008C1105.03 61.864 1104.61 61.792 1104.13 61.792C1103.49 61.792 1102.99 61.912 1102.61 62.152C1102.24 62.392 1102.06 62.722 1102.06 63.142C1102.06 63.454 1102.16 63.706 1102.38 63.898C1102.61 64.09 1102.91 64.24 1103.3 64.348C1103.68 64.456 1104.11 64.564 1104.58 64.672C1105.06 64.768 1105.51 64.876 1105.94 64.996C1106.39 65.116 1106.78 65.272 1107.13 65.464C1107.48 65.656 1107.76 65.914 1107.96 66.238C1108.16 66.55 1108.27 66.952 1108.27 67.444C1108.27 68.056 1108.1 68.572 1107.78 68.992C1107.46 69.4 1107 69.712 1106.41 69.928C1105.84 70.132 1105.16 70.234 1104.38 70.234Z" fill="#FDFDFF"/>
<path d="M1139.55 70V58.12H1143.9C1144.56 58.12 1145.16 58.18 1145.7 58.3C1146.26 58.42 1146.72 58.606 1147.11 58.858C1147.49 59.098 1147.79 59.416 1147.99 59.812C1148.21 60.208 1148.31 60.682 1148.31 61.234C1148.31 61.69 1148.22 62.092 1148.04 62.44C1147.86 62.788 1147.58 63.07 1147.18 63.286C1146.8 63.502 1146.29 63.67 1145.65 63.79V63.988C1146.75 64.084 1147.55 64.384 1148.04 64.888C1148.55 65.392 1148.8 66.052 1148.8 66.868C1148.8 67.54 1148.64 68.11 1148.31 68.578C1148 69.034 1147.52 69.388 1146.86 69.64C1146.21 69.88 1145.37 70 1144.34 70H1139.55ZM1141.13 68.596H1144.5C1145.4 68.596 1146.06 68.446 1146.5 68.146C1146.94 67.834 1147.16 67.36 1147.16 66.724C1147.16 65.992 1146.86 65.446 1146.24 65.086C1145.64 64.714 1144.73 64.528 1143.51 64.528H1141.13V68.596ZM1141.13 63.304H1143.18C1144.36 63.304 1145.24 63.148 1145.81 62.836C1146.39 62.512 1146.68 62.032 1146.68 61.396C1146.68 60.76 1146.42 60.286 1145.92 59.974C1145.43 59.662 1144.68 59.506 1143.67 59.506H1141.13V63.304ZM1151.25 70V57.4H1152.89V70H1151.25ZM1159.71 70.234C1158.82 70.234 1158.04 70.042 1157.35 69.658C1156.68 69.262 1156.15 68.698 1155.77 67.966C1155.4 67.234 1155.21 66.346 1155.21 65.302C1155.21 64.222 1155.41 63.328 1155.81 62.62C1156.21 61.9 1156.75 61.36 1157.43 61C1158.1 60.64 1158.85 60.46 1159.68 60.46C1160.54 60.46 1161.31 60.652 1161.98 61.036C1162.66 61.408 1163.2 61.96 1163.6 62.692C1164 63.412 1164.19 64.306 1164.19 65.374C1164.19 66.442 1164 67.336 1163.6 68.056C1163.22 68.776 1162.68 69.322 1162 69.694C1161.33 70.054 1160.56 70.234 1159.71 70.234ZM1159.78 68.884C1160.36 68.884 1160.85 68.746 1161.26 68.47C1161.68 68.182 1162 67.78 1162.21 67.264C1162.44 66.748 1162.56 66.136 1162.56 65.428C1162.56 64.696 1162.44 64.066 1162.2 63.538C1161.97 62.998 1161.64 62.584 1161.21 62.296C1160.77 61.996 1160.25 61.846 1159.64 61.846C1159.09 61.846 1158.6 61.978 1158.18 62.242C1157.76 62.506 1157.44 62.896 1157.21 63.412C1156.98 63.916 1156.87 64.534 1156.87 65.266C1156.87 66.394 1157.13 67.282 1157.64 67.93C1158.17 68.566 1158.88 68.884 1159.78 68.884ZM1169.98 73.132C1169 73.132 1168.19 73.054 1167.55 72.898C1166.93 72.754 1166.47 72.526 1166.17 72.214C1165.87 71.914 1165.72 71.536 1165.72 71.08C1165.72 70.528 1165.93 70.078 1166.37 69.73C1166.8 69.37 1167.46 69.13 1168.35 69.01V68.686C1167.7 68.686 1167.21 68.608 1166.89 68.452C1166.56 68.296 1166.4 68.062 1166.4 67.75C1166.4 67.426 1166.56 67.156 1166.89 66.94C1167.21 66.712 1167.74 66.502 1168.47 66.31V65.986C1167.74 65.962 1167.18 65.74 1166.8 65.32C1166.41 64.888 1166.22 64.336 1166.22 63.664C1166.22 63.04 1166.38 62.506 1166.71 62.062C1167.04 61.606 1167.52 61.258 1168.15 61.018C1168.77 60.766 1169.52 60.64 1170.4 60.64H1174.79V62.026L1171.93 61.594V61.918C1172.62 62.062 1173.15 62.308 1173.51 62.656C1173.88 63.004 1174.07 63.46 1174.07 64.024C1174.07 64.54 1173.92 64.99 1173.62 65.374C1173.32 65.758 1172.88 66.058 1172.29 66.274C1171.71 66.478 1171 66.58 1170.16 66.58C1169.98 66.58 1169.8 66.574 1169.62 66.562C1169.44 66.55 1169.2 66.52 1168.9 66.472C1168.57 66.664 1168.3 66.844 1168.11 67.012C1167.92 67.18 1167.82 67.33 1167.82 67.462C1167.82 67.594 1167.91 67.696 1168.09 67.768C1168.27 67.84 1168.49 67.894 1168.74 67.93C1169.01 67.954 1169.25 67.966 1169.48 67.966H1171.62C1171.86 67.966 1172.16 67.99 1172.52 68.038C1172.89 68.074 1173.26 68.17 1173.62 68.326C1173.99 68.482 1174.3 68.722 1174.56 69.046C1174.81 69.37 1174.93 69.82 1174.93 70.396C1174.93 71.044 1174.74 71.566 1174.36 71.962C1173.97 72.37 1173.42 72.664 1172.68 72.844C1171.95 73.036 1171.05 73.132 1169.98 73.132ZM1170.02 71.764C1170.82 71.764 1171.47 71.716 1171.96 71.62C1172.47 71.524 1172.83 71.368 1173.06 71.152C1173.3 70.936 1173.42 70.66 1173.42 70.324C1173.42 70.012 1173.34 69.772 1173.19 69.604C1173.03 69.436 1172.83 69.316 1172.59 69.244C1172.35 69.172 1172.11 69.13 1171.86 69.118C1171.62 69.094 1171.41 69.082 1171.24 69.082H1169.14C1168.44 69.238 1167.96 69.454 1167.7 69.73C1167.43 69.994 1167.3 70.282 1167.3 70.594C1167.3 70.93 1167.42 71.182 1167.66 71.35C1167.9 71.518 1168.23 71.626 1168.63 71.674C1169.05 71.734 1169.52 71.764 1170.02 71.764ZM1170.24 65.518C1170.98 65.518 1171.54 65.362 1171.93 65.05C1172.31 64.738 1172.5 64.318 1172.5 63.79C1172.5 63.226 1172.31 62.764 1171.91 62.404C1171.53 62.032 1170.95 61.846 1170.18 61.846C1169.43 61.846 1168.84 62.02 1168.44 62.368C1168.04 62.716 1167.84 63.166 1167.84 63.718C1167.84 64.078 1167.93 64.396 1168.11 64.672C1168.3 64.936 1168.57 65.146 1168.92 65.302C1169.28 65.446 1169.72 65.518 1170.24 65.518Z" fill="#FDFDFF"/>
<rect x="1279.5" y="40" width="251" height="48.0001" rx="24" fill="#002068"/>
<path d="M1334.67 59.1342C1334.11 57.7308 1333.31 56.4971 1332.28 55.4341C1331.25 54.3711 1330 53.533 1328.53 52.9194C1327.06 52.3066 1325.38 52 1323.5 52C1321.62 52 1320.02 52.3066 1318.53 52.9198C1317.05 53.533 1315.78 54.3715 1314.74 55.4345C1313.69 56.4975 1312.89 57.7315 1312.34 59.1346C1311.78 60.5388 1311.5 62.0167 1311.5 63.5705V64.5109C1311.5 66.0378 1311.76 67.4891 1312.3 68.8651C1312.82 70.242 1313.61 71.4688 1314.64 72.5451C1315.67 73.6222 1316.93 74.4667 1318.41 75.0799C1319.9 75.6935 1321.59 76.0001 1323.5 76.0001C1325.41 76.0001 1327.14 75.6935 1328.63 75.0799C1330.11 74.4667 1331.36 73.6222 1332.38 72.5451C1333.4 71.4688 1334.18 70.242 1334.71 68.8651C1335.24 67.4894 1335.5 66.0378 1335.5 64.5109V63.5705C1335.5 62.0167 1335.22 60.5388 1334.67 59.1346L1334.67 59.1342Z" fill="#FF8000"/>
<path d="M1329.79 64.7153L1321.86 71.4957C1321.57 71.74 1321.14 71.5307 1321.14 71.1485V64.5352C1321.14 64.2859 1320.94 64.0838 1320.7 64.0838H1317.49C1317.08 64.0838 1316.89 63.555 1317.21 63.2852L1325.15 56.5047C1325.43 56.2605 1325.86 56.4698 1325.86 56.852V63.4653C1325.86 63.7145 1326.06 63.9167 1326.3 63.9167H1329.51C1329.92 63.9167 1330.11 64.4455 1329.79 64.7153H1329.79Z" fill="#002068"/>
<path d="M1353.1 70V58.12H1355.69V70H1353.1ZM1354.34 65.554V63.43H1361.27V65.554H1354.34ZM1354.34 60.334V58.12H1361.94V60.334H1354.34ZM1365.28 70.252C1364.75 70.252 1364.28 70.15 1363.87 69.946C1363.47 69.73 1363.15 69.424 1362.92 69.028C1362.69 68.632 1362.58 68.14 1362.58 67.552C1362.58 67.036 1362.67 66.604 1362.87 66.256C1363.07 65.908 1363.36 65.626 1363.75 65.41C1364.13 65.194 1364.61 65.014 1365.17 64.87C1365.73 64.726 1366.38 64.6 1367.1 64.492C1367.48 64.432 1367.79 64.378 1368.03 64.33C1368.28 64.27 1368.47 64.18 1368.59 64.06C1368.71 63.928 1368.77 63.742 1368.77 63.502C1368.77 63.166 1368.65 62.878 1368.41 62.638C1368.17 62.398 1367.79 62.278 1367.28 62.278C1366.93 62.278 1366.6 62.338 1366.3 62.458C1366.02 62.578 1365.76 62.758 1365.55 62.998C1365.34 63.238 1365.19 63.544 1365.1 63.916L1362.81 63.214C1362.96 62.722 1363.16 62.296 1363.42 61.936C1363.7 61.576 1364.03 61.276 1364.41 61.036C1364.8 60.784 1365.24 60.598 1365.73 60.478C1366.22 60.358 1366.75 60.298 1367.33 60.298C1368.25 60.298 1369 60.448 1369.58 60.748C1370.17 61.036 1370.61 61.492 1370.89 62.116C1371.18 62.728 1371.33 63.52 1371.33 64.492V66.112C1371.33 66.532 1371.33 66.958 1371.34 67.39C1371.37 67.822 1371.39 68.26 1371.42 68.704C1371.45 69.136 1371.49 69.568 1371.52 70H1369.24C1369.19 69.7 1369.14 69.358 1369.09 68.974C1369.06 68.578 1369.03 68.182 1369 67.786H1368.68C1368.51 68.242 1368.27 68.656 1367.96 69.028C1367.65 69.4 1367.26 69.7 1366.81 69.928C1366.36 70.144 1365.85 70.252 1365.28 70.252ZM1366.38 68.38C1366.6 68.38 1366.83 68.338 1367.06 68.254C1367.3 68.17 1367.53 68.056 1367.74 67.912C1367.97 67.756 1368.18 67.564 1368.36 67.336C1368.55 67.108 1368.7 66.85 1368.82 66.562L1368.79 65.05L1369.2 65.14C1368.99 65.296 1368.73 65.422 1368.45 65.518C1368.16 65.602 1367.86 65.668 1367.55 65.716C1367.25 65.764 1366.95 65.818 1366.65 65.878C1366.35 65.938 1366.08 66.016 1365.84 66.112C1365.61 66.208 1365.42 66.34 1365.28 66.508C1365.15 66.664 1365.08 66.886 1365.08 67.174C1365.08 67.546 1365.2 67.84 1365.44 68.056C1365.68 68.272 1365.99 68.38 1366.38 68.38ZM1373.59 70V57.13H1376.15V70H1373.59ZM1382.93 70.252C1382.15 70.252 1381.45 70.144 1380.84 69.928C1380.24 69.712 1379.73 69.4 1379.31 68.992C1378.89 68.584 1378.56 68.08 1378.34 67.48C1378.12 66.88 1378.01 66.202 1378.01 65.446C1378.01 64.702 1378.11 64.018 1378.32 63.394C1378.53 62.758 1378.85 62.212 1379.25 61.756C1379.66 61.288 1380.16 60.928 1380.75 60.676C1381.34 60.424 1382 60.298 1382.75 60.298C1383.47 60.298 1384.11 60.418 1384.67 60.658C1385.24 60.886 1385.7 61.234 1386.08 61.702C1386.46 62.17 1386.74 62.746 1386.9 63.43C1387.08 64.102 1387.15 64.876 1387.1 65.752L1379.69 65.824V64.402L1385.61 64.348L1384.69 65.068C1384.77 64.432 1384.73 63.91 1384.56 63.502C1384.4 63.094 1384.15 62.794 1383.83 62.602C1383.51 62.41 1383.17 62.314 1382.78 62.314C1382.33 62.314 1381.92 62.434 1381.58 62.674C1381.23 62.914 1380.96 63.268 1380.77 63.736C1380.57 64.192 1380.48 64.744 1380.48 65.392C1380.48 66.412 1380.7 67.162 1381.14 67.642C1381.6 68.122 1382.19 68.362 1382.93 68.362C1383.26 68.362 1383.54 68.32 1383.77 68.236C1384.01 68.14 1384.2 68.02 1384.35 67.876C1384.5 67.732 1384.62 67.57 1384.71 67.39C1384.8 67.21 1384.88 67.03 1384.94 66.85L1387.19 67.336C1387.08 67.78 1386.92 68.182 1386.71 68.542C1386.5 68.89 1386.23 69.196 1385.88 69.46C1385.53 69.712 1385.11 69.904 1384.62 70.036C1384.14 70.18 1383.57 70.252 1382.93 70.252ZM1397.52 70.252C1396.7 70.252 1395.99 70.132 1395.37 69.892C1394.76 69.652 1394.25 69.316 1393.84 68.884C1393.44 68.452 1393.13 67.942 1392.93 67.354C1392.72 66.754 1392.62 66.1 1392.62 65.392C1392.62 64.648 1392.72 63.97 1392.93 63.358C1393.14 62.734 1393.45 62.194 1393.86 61.738C1394.27 61.282 1394.77 60.928 1395.37 60.676C1395.97 60.424 1396.66 60.298 1397.43 60.298C1398.19 60.298 1398.86 60.424 1399.42 60.676C1400 60.928 1400.46 61.282 1400.81 61.738C1401.17 62.182 1401.42 62.71 1401.55 63.322L1399.15 64.096C1399.12 63.724 1399.02 63.406 1398.85 63.142C1398.69 62.866 1398.48 62.662 1398.2 62.53C1397.94 62.386 1397.64 62.314 1397.3 62.314C1396.95 62.314 1396.65 62.386 1396.4 62.53C1396.15 62.662 1395.93 62.86 1395.75 63.124C1395.58 63.376 1395.45 63.688 1395.36 64.06C1395.27 64.42 1395.23 64.828 1395.23 65.284C1395.23 65.932 1395.31 66.484 1395.48 66.94C1395.66 67.384 1395.92 67.726 1396.26 67.966C1396.6 68.194 1397.03 68.308 1397.53 68.308C1398.01 68.308 1398.4 68.218 1398.69 68.038C1398.97 67.846 1399.18 67.606 1399.32 67.318C1399.46 67.018 1399.55 66.712 1399.59 66.4L1401.85 66.904C1401.79 67.372 1401.66 67.81 1401.46 68.218C1401.27 68.626 1400.99 68.98 1400.63 69.28C1400.27 69.58 1399.83 69.82 1399.32 70C1398.81 70.168 1398.21 70.252 1397.52 70.252ZM1407.62 70.252C1406.67 70.252 1405.84 70.066 1405.12 69.694C1404.4 69.31 1403.83 68.752 1403.43 68.02C1403.02 67.276 1402.81 66.352 1402.81 65.248C1402.81 64.144 1403.02 63.226 1403.43 62.494C1403.85 61.762 1404.42 61.216 1405.14 60.856C1405.87 60.484 1406.7 60.298 1407.62 60.298C1408.57 60.298 1409.4 60.484 1410.12 60.856C1410.85 61.228 1411.42 61.786 1411.83 62.53C1412.25 63.262 1412.46 64.18 1412.46 65.284C1412.46 66.4 1412.25 67.33 1411.81 68.074C1411.39 68.806 1410.82 69.352 1410.09 69.712C1409.37 70.072 1408.54 70.252 1407.62 70.252ZM1407.71 68.326C1408.18 68.326 1408.57 68.218 1408.88 68.002C1409.2 67.786 1409.44 67.462 1409.6 67.03C1409.77 66.586 1409.85 66.052 1409.85 65.428C1409.85 64.768 1409.76 64.21 1409.58 63.754C1409.41 63.286 1409.16 62.932 1408.83 62.692C1408.49 62.44 1408.06 62.314 1407.55 62.314C1407.1 62.314 1406.72 62.422 1406.4 62.638C1406.07 62.842 1405.83 63.166 1405.66 63.61C1405.49 64.042 1405.41 64.576 1405.41 65.212C1405.41 66.232 1405.61 67.006 1406.02 67.534C1406.43 68.062 1406.99 68.326 1407.71 68.326ZM1414.31 70V63.952V60.55H1416.38V63.376H1416.72C1416.89 62.68 1417.11 62.11 1417.38 61.666C1417.66 61.21 1417.99 60.868 1418.37 60.64C1418.77 60.412 1419.23 60.298 1419.76 60.298C1420.32 60.298 1420.79 60.424 1421.16 60.676C1421.54 60.928 1421.82 61.282 1422.03 61.738C1422.23 62.182 1422.36 62.728 1422.42 63.376H1422.71C1422.89 62.668 1423.13 62.086 1423.43 61.63C1423.74 61.174 1424.11 60.838 1424.53 60.622C1424.96 60.406 1425.44 60.298 1425.95 60.298C1426.47 60.298 1426.92 60.4 1427.3 60.604C1427.7 60.808 1428.03 61.114 1428.29 61.522C1428.56 61.918 1428.75 62.422 1428.89 63.034C1429.02 63.634 1429.08 64.33 1429.08 65.122V70H1426.49V65.446C1426.49 64.798 1426.44 64.258 1426.33 63.826C1426.22 63.382 1426.05 63.052 1425.83 62.836C1425.6 62.62 1425.3 62.512 1424.94 62.512C1424.55 62.512 1424.21 62.65 1423.92 62.926C1423.63 63.19 1423.4 63.556 1423.23 64.024C1423.07 64.492 1422.98 65.026 1422.96 65.626V70H1420.43V65.518C1420.43 64.846 1420.37 64.294 1420.25 63.862C1420.13 63.418 1419.95 63.082 1419.72 62.854C1419.5 62.626 1419.21 62.512 1418.86 62.512C1418.45 62.512 1418.1 62.65 1417.82 62.926C1417.53 63.19 1417.31 63.562 1417.15 64.042C1416.99 64.522 1416.91 65.056 1416.9 65.644V70H1414.31ZM1437.7 70.252C1437.17 70.252 1436.7 70.15 1436.3 69.946C1435.89 69.73 1435.57 69.424 1435.34 69.028C1435.11 68.632 1435 68.14 1435 67.552C1435 67.036 1435.1 66.604 1435.29 66.256C1435.49 65.908 1435.79 65.626 1436.17 65.41C1436.55 65.194 1437.03 65.014 1437.59 64.87C1438.16 64.726 1438.8 64.6 1439.52 64.492C1439.9 64.432 1440.21 64.378 1440.45 64.33C1440.71 64.27 1440.89 64.18 1441.01 64.06C1441.13 63.928 1441.19 63.742 1441.19 63.502C1441.19 63.166 1441.07 62.878 1440.83 62.638C1440.59 62.398 1440.21 62.278 1439.7 62.278C1439.35 62.278 1439.03 62.338 1438.73 62.458C1438.44 62.578 1438.19 62.758 1437.97 62.998C1437.77 63.238 1437.62 63.544 1437.52 63.916L1435.23 63.214C1435.38 62.722 1435.58 62.296 1435.85 61.936C1436.12 61.576 1436.45 61.276 1436.84 61.036C1437.22 60.784 1437.66 60.598 1438.15 60.478C1438.64 60.358 1439.18 60.298 1439.75 60.298C1440.68 60.298 1441.43 60.448 1442 60.748C1442.59 61.036 1443.03 61.492 1443.32 62.116C1443.6 62.728 1443.75 63.52 1443.75 64.492V66.112C1443.75 66.532 1443.75 66.958 1443.77 67.39C1443.79 67.822 1443.81 68.26 1443.84 68.704C1443.87 69.136 1443.91 69.568 1443.95 70H1441.66C1441.61 69.7 1441.56 69.358 1441.52 68.974C1441.48 68.578 1441.45 68.182 1441.43 67.786H1441.1C1440.93 68.242 1440.69 68.656 1440.38 69.028C1440.07 69.4 1439.69 69.7 1439.23 69.928C1438.79 70.144 1438.28 70.252 1437.7 70.252ZM1438.8 68.38C1439.03 68.38 1439.25 68.338 1439.48 68.254C1439.72 68.17 1439.95 68.056 1440.17 67.912C1440.39 67.756 1440.6 67.564 1440.78 67.336C1440.97 67.108 1441.13 66.85 1441.25 66.562L1441.21 65.05L1441.62 65.14C1441.41 65.296 1441.16 65.422 1440.87 65.518C1440.58 65.602 1440.28 65.668 1439.97 65.716C1439.67 65.764 1439.37 65.818 1439.07 65.878C1438.77 65.938 1438.5 66.016 1438.26 66.112C1438.03 66.208 1437.84 66.34 1437.7 66.508C1437.57 66.664 1437.5 66.886 1437.5 67.174C1437.5 67.546 1437.62 67.84 1437.86 68.056C1438.1 68.272 1438.41 68.38 1438.8 68.38ZM1449.57 70V67.552L1455.58 60.514V60.298H1449.77V58.12H1458.43V60.784L1452.59 67.624V67.822H1458.66V70H1449.57ZM1464.57 70.252C1463.63 70.252 1462.79 70.066 1462.07 69.694C1461.35 69.31 1460.79 68.752 1460.38 68.02C1459.97 67.276 1459.77 66.352 1459.77 65.248C1459.77 64.144 1459.97 63.226 1460.38 62.494C1460.8 61.762 1461.37 61.216 1462.09 60.856C1462.82 60.484 1463.65 60.298 1464.57 60.298C1465.52 60.298 1466.36 60.484 1467.08 60.856C1467.81 61.228 1468.38 61.786 1468.79 62.53C1469.21 63.262 1469.42 64.18 1469.42 65.284C1469.42 66.4 1469.2 67.33 1468.77 68.074C1468.35 68.806 1467.77 69.352 1467.04 69.712C1466.32 70.072 1465.5 70.252 1464.57 70.252ZM1464.66 68.326C1465.13 68.326 1465.52 68.218 1465.83 68.002C1466.16 67.786 1466.4 67.462 1466.55 67.03C1466.72 66.586 1466.81 66.052 1466.81 65.428C1466.81 64.768 1466.72 64.21 1466.54 63.754C1466.37 63.286 1466.12 62.932 1465.78 62.692C1465.44 62.44 1465.02 62.314 1464.5 62.314C1464.06 62.314 1463.67 62.422 1463.35 62.638C1463.03 62.842 1462.78 63.166 1462.61 63.61C1462.44 64.042 1462.36 64.576 1462.36 65.212C1462.36 66.232 1462.56 67.006 1462.97 67.534C1463.38 68.062 1463.94 68.326 1464.66 68.326ZM1474.77 70.216C1473.71 70.216 1472.93 69.94 1472.43 69.388C1471.94 68.824 1471.69 67.93 1471.69 66.706V62.584H1470.32L1470.36 60.55H1471.31C1471.68 60.55 1471.96 60.496 1472.14 60.388C1472.32 60.28 1472.43 60.082 1472.46 59.794L1472.7 58.444H1474.17V60.55H1476.57V62.656H1474.17V66.598C1474.17 67.03 1474.28 67.342 1474.48 67.534C1474.68 67.726 1475 67.822 1475.42 67.822C1475.64 67.822 1475.86 67.798 1476.06 67.75C1476.28 67.702 1476.47 67.624 1476.62 67.516V69.928C1476.25 70.048 1475.91 70.126 1475.6 70.162C1475.28 70.198 1475.01 70.216 1474.77 70.216ZM1481.62 70.252C1480.51 70.252 1479.68 69.88 1479.11 69.136C1478.56 68.38 1478.29 67.234 1478.29 65.698V60.55H1480.88V65.374C1480.88 66.298 1481.02 66.988 1481.29 67.444C1481.57 67.888 1481.99 68.11 1482.55 68.11C1482.89 68.11 1483.18 68.026 1483.43 67.858C1483.69 67.69 1483.9 67.456 1484.08 67.156C1484.26 66.856 1484.39 66.502 1484.48 66.094C1484.57 65.686 1484.63 65.248 1484.64 64.78V60.55H1487.23V66.148V70H1485.14L1485.13 67.048H1484.8C1484.62 67.792 1484.39 68.404 1484.12 68.884C1483.85 69.352 1483.51 69.7 1483.09 69.928C1482.68 70.144 1482.19 70.252 1481.62 70.252ZM1493.39 70.252C1492.75 70.252 1492.18 70.192 1491.66 70.072C1491.15 69.952 1490.7 69.778 1490.33 69.55C1489.96 69.322 1489.66 69.052 1489.43 68.74C1489.2 68.416 1489.05 68.056 1488.98 67.66L1490.96 66.85C1491.01 67.114 1491.14 67.36 1491.36 67.588C1491.57 67.816 1491.86 68.002 1492.22 68.146C1492.59 68.278 1493.04 68.344 1493.55 68.344C1494.1 68.344 1494.53 68.266 1494.83 68.11C1495.13 67.942 1495.28 67.708 1495.28 67.408C1495.28 67.18 1495.2 67 1495.03 66.868C1494.86 66.736 1494.61 66.622 1494.29 66.526C1493.97 66.43 1493.58 66.34 1493.12 66.256C1492.68 66.148 1492.22 66.034 1491.75 65.914C1491.3 65.794 1490.87 65.626 1490.47 65.41C1490.09 65.194 1489.77 64.912 1489.52 64.564C1489.28 64.204 1489.16 63.748 1489.16 63.196C1489.16 62.62 1489.32 62.116 1489.63 61.684C1489.94 61.252 1490.4 60.916 1491 60.676C1491.6 60.424 1492.33 60.298 1493.19 60.298C1493.97 60.298 1494.66 60.406 1495.24 60.622C1495.83 60.826 1496.31 61.126 1496.68 61.522C1497.07 61.906 1497.33 62.368 1497.46 62.908L1495.35 63.61C1495.3 63.322 1495.18 63.07 1494.99 62.854C1494.81 62.638 1494.57 62.476 1494.25 62.368C1493.95 62.26 1493.6 62.206 1493.19 62.206C1492.68 62.206 1492.27 62.29 1491.99 62.458C1491.71 62.626 1491.57 62.848 1491.57 63.124C1491.57 63.352 1491.66 63.538 1491.84 63.682C1492.03 63.826 1492.3 63.946 1492.63 64.042C1492.97 64.126 1493.37 64.216 1493.82 64.312C1494.3 64.408 1494.77 64.522 1495.23 64.654C1495.68 64.774 1496.09 64.936 1496.45 65.14C1496.82 65.344 1497.12 65.614 1497.33 65.95C1497.55 66.286 1497.66 66.718 1497.66 67.246C1497.66 67.87 1497.49 68.41 1497.15 68.866C1496.82 69.31 1496.33 69.652 1495.69 69.892C1495.06 70.132 1494.29 70.252 1493.39 70.252Z" fill="#FF8000"/>
<defs>
<linearGradient id="paint0_linear_2_1569" x1="-1.38424e-05" y1="64.0005" x2="1920" y2="64.0003" gradientUnits="userSpaceOnUse">
<stop stop-color="#28459A"/>
<stop offset="0.494453" stop-color="#28459A" stop-opacity="0.2"/>
<stop offset="1" stop-color="#28459A"/>
</linearGradient>
</defs>
</svg>
