<svg width="16" height="16" viewBox="0 0 16 16" fill="none" xmlns="http://www.w3.org/2000/svg">
<path d="M11.7501 7.99998C11.747 7.67116 11.6145 7.35679 11.3813 7.12498L8.70006 4.43748C8.58296 4.32108 8.42455 4.25574 8.25944 4.25574C8.09432 4.25574 7.93591 4.32108 7.81881 4.43748C7.76023 4.49558 7.71373 4.56471 7.682 4.64087C7.65027 4.71703 7.63394 4.79872 7.63394 4.88123C7.63394 4.96374 7.65027 5.04543 7.682 5.12159C7.71373 5.19775 7.76023 5.26688 7.81881 5.32498L9.87506 7.37498H3.62506C3.4593 7.37498 3.30033 7.44083 3.18312 7.55804C3.06591 7.67525 3.00006 7.83422 3.00006 7.99998C3.00006 8.16574 3.06591 8.32471 3.18312 8.44192C3.30033 8.55913 3.4593 8.62498 3.62506 8.62498H9.87506L7.81881 10.6812C7.70112 10.7981 7.63467 10.9569 7.63409 11.1228C7.6335 11.2886 7.69882 11.4479 7.81569 11.5656C7.93255 11.6833 8.09137 11.7497 8.25723 11.7503C8.42308 11.7509 8.58237 11.6856 8.70006 11.5687L11.3813 8.88123C11.6161 8.64788 11.7487 8.33096 11.7501 7.99998Z" fill="#CB6300"/>
</svg>
