<svg width="15" height="16" viewBox="0 0 15 16" fill="none" xmlns="http://www.w3.org/2000/svg">
<path d="M0 15.5C0.115341 15.079 0.224314 14.6797 0.333994 14.2801C0.561138 13.4522 0.791113 12.6253 1.01189 11.7958C1.03312 11.7162 1.02368 11.6069 0.984291 11.5358C-1.0442 7.85626 0.377866 3.22721 4.12657 1.32062C8.27012 -0.786585 13.3067 1.33237 14.6717 5.75704C15.8765 9.66301 13.661 13.8457 9.73536 15.0438C7.78588 15.6388 5.89419 15.4523 4.07256 14.5397C4.0025 14.5044 3.90084 14.4948 3.82442 14.5143C2.6052 14.8265 1.38787 15.1457 0.170063 15.4629C0.121474 15.4756 0.0719408 15.4845 0 15.5ZM1.7905 13.7419C2.53939 13.5462 3.25715 13.3618 3.97302 13.1689C4.09473 13.1363 4.18743 13.1525 4.29475 13.2166C5.67672 14.0419 7.16577 14.3139 8.74376 14.0012C12.0894 13.3385 14.2577 10.1152 13.6272 6.77071C13.0008 3.44827 9.72828 1.22924 6.38669 1.86117C2.20823 2.65143 0.0308993 7.29152 2.13251 10.9706C2.35022 11.3516 2.39457 11.6647 2.25894 12.066C2.07638 12.6058 1.94901 13.164 1.7905 13.7419Z" fill="#137735"/>
<path d="M5.11723 4.51358C5.43306 4.43559 5.58803 4.62516 5.69865 4.91059C5.86777 5.34707 6.05269 5.77767 6.23856 6.20757C6.30319 6.35721 6.29753 6.48876 6.20035 6.61773C6.05269 6.81318 5.91141 7.0138 5.75526 7.20244C5.64983 7.32977 5.64039 7.44347 5.72483 7.58489C6.33433 8.60443 7.18488 9.34184 8.29371 9.78183C8.44632 9.84244 8.56685 9.81472 8.66898 9.6874C8.85178 9.45976 9.03906 9.23542 9.21998 9.00637C9.35324 8.83794 9.4299 8.79636 9.62143 8.88328C10.1486 9.12266 10.6711 9.37261 11.1886 9.63243C11.2525 9.66461 11.31 9.78207 11.3089 9.85889C11.2968 10.6513 11.0628 11.0309 10.2151 11.3861C9.73418 11.5874 9.23484 11.5402 8.7388 11.4025C6.9391 10.9033 5.61327 9.77667 4.55255 8.29129C4.22304 7.82991 3.92584 7.3542 3.79965 6.79486C3.61803 5.9898 3.81663 5.29186 4.41103 4.70903C4.60421 4.51969 4.83772 4.48187 5.11723 4.51358Z" fill="#137735"/>
</svg>
