<svg width="19" height="20" viewBox="0 0 19 20" fill="none" xmlns="http://www.w3.org/2000/svg">
<path d="M9.20907 5.23772C6.59639 5.23772 4.489 7.34558 4.489 9.95884C4.489 12.5721 6.59639 14.68 9.20907 14.68C11.8217 14.68 13.9291 12.5721 13.9291 9.95884C13.9291 7.34558 11.8217 5.23772 9.20907 5.23772ZM9.20907 13.0282C7.52069 13.0282 6.1404 11.6517 6.1404 9.95884C6.1404 8.26598 7.51658 6.8895 9.20907 6.8895C10.9016 6.8895 12.2777 8.26598 12.2777 9.95884C12.2777 11.6517 10.8974 13.0282 9.20907 13.0282ZM15.2231 5.0446C15.2231 5.65683 14.7302 6.14579 14.1222 6.14579C13.5101 6.14579 13.0213 5.65272 13.0213 5.0446C13.0213 4.43648 13.5142 3.94342 14.1222 3.94342C14.7302 3.94342 15.2231 4.43648 15.2231 5.0446ZM18.3493 6.16222C18.2795 4.68713 17.9426 3.3805 16.8622 2.30397C15.7859 1.22744 14.4796 0.890506 13.0048 0.816546C11.4849 0.730259 6.92914 0.730259 5.40918 0.816546C3.93853 0.886397 2.63219 1.22333 1.55179 2.29986C0.471391 3.37639 0.138644 4.68302 0.0647007 6.15811C-0.0215669 7.6784 -0.0215669 12.2352 0.0647007 13.7555C0.134536 15.2306 0.471391 16.5372 1.55179 17.6137C2.63219 18.6902 3.93442 19.0272 5.40918 19.1011C6.92914 19.1874 11.4849 19.1874 13.0048 19.1011C14.4796 19.0313 15.7859 18.6944 16.8622 17.6137C17.9385 16.5372 18.2754 15.2306 18.3493 13.7555C18.4356 12.2352 18.4356 7.68251 18.3493 6.16222ZM16.3857 15.3867C16.0653 16.192 15.445 16.8125 14.6357 17.1371C13.4239 17.6178 10.5483 17.5069 9.20907 17.5069C7.86986 17.5069 4.99017 17.6137 3.78242 17.1371C2.97726 16.8166 2.35695 16.1961 2.03242 15.3867C1.55179 14.1746 1.66271 11.2983 1.66271 9.95884C1.66271 8.61934 1.5559 5.73901 2.03242 4.53099C2.35285 3.72565 2.97315 3.1052 3.78242 2.7806C4.99428 2.29986 7.86986 2.4108 9.20907 2.4108C10.5483 2.4108 13.428 2.30397 14.6357 2.7806C15.4409 3.10109 16.0612 3.72154 16.3857 4.53099C16.8663 5.74311 16.7554 8.61934 16.7554 9.95884C16.7554 11.2983 16.8663 14.1787 16.3857 15.3867Z" fill="#002068"/>
</svg>
