<svg width="20" height="20" viewBox="0 0 20 20" fill="none" xmlns="http://www.w3.org/2000/svg">
<path d="M4.87563 19.1659H1.05801V6.87175H4.87563V19.1659ZM2.96476 5.19472C1.74401 5.19472 0.753845 4.18357 0.753845 2.9628C0.753845 2.37641 0.98678 1.81404 1.40141 1.39941C1.81603 0.984771 2.37839 0.751831 2.96476 0.751831C3.55113 0.751831 4.11349 0.984771 4.52811 1.39941C4.94274 1.81404 5.17568 2.37641 5.17568 2.9628C5.17568 4.18357 4.1851 5.19472 2.96476 5.19472ZM19.1638 19.1659H15.3544V13.1812C15.3544 11.7549 15.3256 9.92575 13.3695 9.92575C11.3847 9.92575 11.0805 11.4754 11.0805 13.0784V19.1659H7.26698V6.87175H10.9284V8.54878H10.9818C11.4915 7.58285 12.7365 6.56348 14.594 6.56348C18.4576 6.56348 19.1679 9.10779 19.1679 12.4125V19.1659H19.1638Z" fill="#002068"/>
</svg>
