<svg width="296" height="60" viewBox="0 0 296 60" fill="none" xmlns="http://www.w3.org/2000/svg">
<path d="M37.4645 12.4547H0.796924V22.9377H22.2957L0 50.4657V59.5051H37.4645V49.0222H15.0505L37.4645 21.4941V12.4547Z" fill="#002068"/>
<path d="M108.855 0H96.2772L96.1907 40.6841C96.1907 45.3564 96.8646 49.0541 98.2171 51.7818C99.5696 54.5096 101.678 56.4678 104.547 57.6472C107.416 58.8267 111.187 59.4187 115.859 59.4187H122.357V47.9384H115.522C113.381 47.9384 111.738 47.3601 110.585 46.2079C109.433 45.0558 108.855 43.38 108.855 41.185V22.4459H122.362V12.4867H108.855V0Z" fill="#002068"/>
<path d="M158.378 39.1859C158.378 41.727 157.645 43.7443 156.183 45.238C154.717 46.7316 152.795 47.4739 150.422 47.4739C148.05 47.4739 146.251 46.759 144.867 45.32C143.487 43.8855 142.795 41.9501 142.795 39.5183V12.4912H129.447V38.8535C129.447 45.707 130.868 50.8483 133.719 54.2728C136.565 57.7019 140.586 59.4141 145.782 59.4141H146.36C149.844 59.4141 152.745 58.6536 155.063 57.1326C157.385 55.6117 159.125 53.3211 160.286 50.2518C160.65 49.2909 160.951 48.2481 161.197 47.1415V59.4232H171.725V12.4912H158.378V39.1859Z" fill="#002068"/>
<path d="M213.244 35.1512C210.234 32.7331 206.012 31.2258 200.584 30.6338L197.119 30.3105C194.805 30.0418 193.138 29.5864 192.118 28.9398C191.098 28.2931 190.588 27.355 190.588 26.1164C190.588 24.8777 191.18 23.8076 192.364 23.0516C193.548 22.3002 195.133 21.9223 197.123 21.9223C199.596 21.9223 201.49 22.4323 202.806 23.4569C204.122 24.477 204.86 25.6883 205.024 27.0863H216.554C216.395 22.3549 214.564 18.7391 211.072 16.2391C207.574 13.739 202.979 12.4912 197.282 12.4912C193.735 12.4912 190.575 13.0286 187.806 14.1033C185.037 15.178 182.874 16.7628 181.312 18.8621C179.75 20.9614 178.976 23.5662 178.976 26.6856C178.976 30.5017 180.306 33.6075 182.965 35.9982C185.625 38.389 189.618 39.8553 194.942 40.3927L198.407 40.798C201.258 41.0667 203.257 41.5904 204.414 42.3691C205.57 43.1478 206.149 44.1815 206.149 45.4748C206.149 46.9275 205.411 48.0432 203.931 48.8219C202.451 49.6006 200.584 49.9922 198.325 49.9922C195.37 49.9922 193.152 49.4412 191.672 48.3392C190.192 47.2371 189.345 45.9894 189.131 44.5913H177.683C177.897 49.2682 179.777 52.9112 183.329 55.516C186.877 58.1254 191.795 59.4278 198.084 59.4278C202.064 59.4278 205.529 58.8358 208.485 57.6518C211.44 56.4678 213.726 54.792 215.338 52.6107C216.951 50.4339 217.757 47.8656 217.757 44.9101C217.757 40.8253 216.249 37.5739 213.239 35.1558L213.244 35.1512Z" fill="#002068"/>
<path d="M88.1029 26.2846C86.9598 23.4886 85.3341 21.0295 83.212 18.9119C81.0945 16.7944 78.5261 15.1231 75.5115 13.8982C72.4968 12.6777 69.0586 12.0675 65.2015 12.0675C61.3444 12.0675 58.0565 12.6777 55.0146 13.8982C51.9726 15.1186 49.3769 16.7898 47.232 18.9119C45.0872 21.0295 43.4432 23.4886 42.3002 26.2846C41.1572 29.0852 40.588 32.0316 40.588 35.1282V37.0044C40.588 40.0464 41.1299 42.9426 42.2182 45.684C43.3066 48.43 44.905 50.8754 47.0271 53.0203C49.1446 55.1651 51.7267 56.8501 54.7686 58.0705C57.8106 59.2909 61.2898 59.9057 65.2015 59.9057C69.1133 59.9057 72.6698 59.2955 75.7118 58.0705C78.7538 56.8501 81.3222 55.1651 83.4124 53.0203C85.5026 50.8754 87.0919 48.43 88.1803 45.684C89.2686 42.9426 89.8105 40.0464 89.8105 37.0044V35.1282C89.8105 32.0316 89.2413 29.0852 88.0983 26.2846H88.1029Z" fill="#FF8000"/>
<path d="M78.103 37.4052L61.8321 50.921C61.2447 51.4083 60.3567 50.9893 60.3567 50.2289V37.05C60.3567 36.5536 59.9559 36.1483 59.455 36.1483H52.8792C52.0368 36.1483 51.6543 35.0964 52.3055 34.5545L68.5764 21.0387C69.1638 20.5514 70.0518 20.9704 70.0518 21.7309V34.9097C70.0518 35.4061 70.4526 35.8114 70.9535 35.8114H77.5292C78.3717 35.8114 78.7542 36.8633 78.103 37.4052Z" fill="#002068"/>
<path d="M242.816 36.9228L232.069 45.8484C231.682 46.1717 231.095 45.8939 231.095 45.393V36.686C231.095 36.3581 230.83 36.0895 230.498 36.0895H226.154C225.598 36.0895 225.348 35.3927 225.776 35.0375L236.523 26.112C236.91 25.7886 237.497 26.0664 237.497 26.5674V35.2743C237.497 35.6022 237.761 35.8709 238.094 35.8709H242.438C242.994 35.8709 243.244 36.5676 242.816 36.9228Z" fill="#FF8000"/>
<path d="M254.56 33.7484C253.954 33.7484 253.408 33.6117 252.921 33.3339C252.433 33.0562 252.055 32.6372 251.782 32.0771C251.509 31.517 251.372 30.8111 251.372 29.9687C251.372 29.3493 251.45 28.7938 251.605 28.3111C251.759 27.8283 251.992 27.4185 252.31 27.077C252.629 26.7354 253.012 26.4758 253.467 26.2982C253.922 26.1161 254.446 26.0296 255.043 26.0296C255.494 26.0296 255.899 26.0797 256.268 26.189C256.632 26.2937 256.951 26.444 257.219 26.6443C257.488 26.8447 257.702 27.077 257.852 27.3456C258.007 27.6143 258.089 27.9194 258.103 28.2655L256.577 28.7391C256.568 28.4249 256.491 28.1653 256.341 27.965C256.19 27.7646 255.994 27.6098 255.758 27.5096C255.516 27.4094 255.257 27.3593 254.97 27.3593C254.565 27.3593 254.223 27.4504 253.936 27.6325C253.654 27.8147 253.431 28.097 253.28 28.475C253.126 28.853 253.048 29.3311 253.048 29.9049C253.048 30.3466 253.094 30.7246 253.18 31.0434C253.271 31.3621 253.399 31.6263 253.567 31.8357C253.736 32.0452 253.941 32.2 254.177 32.3093C254.419 32.4141 254.692 32.4687 255.006 32.4687C255.32 32.4687 255.621 32.4141 255.867 32.3002C256.108 32.1864 256.304 32.0179 256.45 31.7902C256.596 31.5625 256.678 31.2711 256.691 30.9204H255.289V29.7546H258.299V33.6072H257.156L257.201 31.7082H256.987C256.869 32.1591 256.705 32.5325 256.505 32.8376C256.304 33.1427 256.04 33.3704 255.726 33.5298C255.412 33.6891 255.015 33.7666 254.551 33.7666L254.56 33.7484Z" fill="#002068"/>
<path d="M262.388 33.7487C261.91 33.7487 261.477 33.6804 261.099 33.5483C260.717 33.4117 260.398 33.2205 260.134 32.9654C259.874 32.7104 259.669 32.3962 259.533 32.0274C259.396 31.6585 259.323 31.2304 259.323 30.7523C259.323 30.2741 259.392 29.8506 259.524 29.4544C259.656 29.0628 259.847 28.7213 260.097 28.4389C260.343 28.1566 260.653 27.9334 261.026 27.7786C261.4 27.6192 261.814 27.5418 262.26 27.5418C262.707 27.5418 263.13 27.6147 263.476 27.7649C263.822 27.9152 264.114 28.1338 264.346 28.4207C264.578 28.7076 264.751 29.0628 264.861 29.4817C264.975 29.9007 265.016 30.3925 264.984 30.9526L260.357 30.9845V30.1102L264.05 30.0646L263.49 30.5018C263.536 30.1147 263.504 29.7914 263.399 29.5364C263.294 29.2814 263.139 29.0947 262.939 28.9672C262.734 28.8442 262.515 28.7805 262.279 28.7805C261.992 28.7805 261.746 28.8579 261.536 29.0127C261.327 29.1675 261.158 29.3861 261.035 29.673C260.913 29.9599 260.849 30.306 260.849 30.7113C260.849 31.3534 260.985 31.827 261.263 32.1184C261.541 32.4144 261.905 32.5647 262.365 32.5647C262.575 32.5647 262.752 32.5374 262.898 32.4827C263.044 32.4281 263.167 32.3552 263.262 32.2642C263.358 32.1731 263.435 32.0729 263.495 31.959C263.549 31.8452 263.595 31.7359 263.636 31.6221L265.038 31.9226C264.97 32.2004 264.87 32.4509 264.742 32.674C264.61 32.8971 264.437 33.0884 264.219 33.2478C264 33.4072 263.74 33.5256 263.435 33.6121C263.135 33.6986 262.78 33.7396 262.374 33.7396L262.388 33.7487Z" fill="#002068"/>
<path d="M268.527 33.7487C268.131 33.7487 267.771 33.7123 267.457 33.6349C267.143 33.5574 266.865 33.4527 266.633 33.3115C266.4 33.1704 266.214 32.9973 266.073 32.8015C265.931 32.6011 265.831 32.3826 265.781 32.1458L267.006 31.6312C267.043 31.7906 267.129 31.9408 267.261 32.0866C267.393 32.2323 267.575 32.3507 267.808 32.4326C268.04 32.5146 268.322 32.5602 268.65 32.5602C268.978 32.5602 269.251 32.5101 269.438 32.4099C269.625 32.3097 269.72 32.164 269.72 31.9773C269.72 31.8361 269.666 31.7222 269.561 31.6403C269.456 31.5583 269.306 31.4854 269.105 31.4262C268.905 31.367 268.664 31.3078 268.368 31.2486C268.09 31.1986 267.812 31.1302 267.525 31.0483C267.238 30.9663 266.974 30.857 266.724 30.7204C266.473 30.5883 266.273 30.4062 266.127 30.1876C265.982 29.9645 265.909 29.6867 265.909 29.3497C265.909 28.9899 266.004 28.6803 266.196 28.4116C266.387 28.1475 266.674 27.9334 267.047 27.7786C267.425 27.6192 267.88 27.5418 268.413 27.5418C268.901 27.5418 269.324 27.6056 269.688 27.7376C270.053 27.8697 270.353 28.0564 270.59 28.2977C270.831 28.5437 270.986 28.8306 271.064 29.1675L269.761 29.6047C269.729 29.418 269.656 29.2586 269.543 29.1265C269.429 28.9945 269.274 28.8943 269.083 28.8214C268.891 28.7486 268.668 28.7167 268.413 28.7167C268.099 28.7167 267.853 28.7668 267.671 28.8761C267.493 28.9808 267.402 29.122 267.402 29.3041C267.402 29.4453 267.462 29.5637 267.575 29.6502C267.689 29.7368 267.853 29.8096 268.063 29.8643C268.272 29.9189 268.518 29.9781 268.805 30.0464C269.096 30.1056 269.383 30.1739 269.67 30.2559C269.952 30.3333 270.212 30.4381 270.444 30.561C270.677 30.684 270.859 30.8525 270.995 31.0619C271.127 31.2714 271.196 31.5446 271.196 31.8816C271.196 32.2687 271.091 32.6102 270.886 32.8926C270.681 33.1749 270.381 33.3935 269.984 33.5392C269.588 33.685 269.105 33.7578 268.536 33.7578L268.527 33.7487Z" fill="#002068"/>
<path d="M274.465 33.7258C273.814 33.7258 273.331 33.5527 273.017 33.2021C272.702 32.8514 272.543 32.3004 272.543 31.5354V28.9761H271.701L271.723 27.6965H272.306C272.529 27.6965 272.702 27.6646 272.816 27.5963C272.93 27.528 273.008 27.405 273.035 27.2274L273.167 26.3849H274.087V27.701H275.58V29.0125H274.087V31.4716C274.087 31.7312 274.151 31.927 274.278 32.0545C274.406 32.182 274.597 32.2458 274.852 32.2458C275.002 32.2458 275.139 32.2275 275.266 32.1957C275.394 32.1638 275.508 32.1137 275.612 32.0454V33.5618C275.38 33.6301 275.166 33.6757 274.97 33.6984C274.774 33.7212 274.606 33.7303 274.456 33.7303L274.465 33.7258Z" fill="#002068"/>
<path d="M278.126 33.7487C277.789 33.7487 277.493 33.6849 277.238 33.5529C276.983 33.4208 276.783 33.2341 276.641 32.9836C276.5 32.7377 276.427 32.4326 276.427 32.0729C276.427 31.7495 276.491 31.4809 276.614 31.2577C276.737 31.0391 276.919 30.8615 277.165 30.7249C277.406 30.5883 277.702 30.479 278.049 30.3879C278.39 30.2969 278.795 30.2194 279.26 30.1511C279.492 30.1147 279.683 30.0783 279.838 30.0464C279.993 30.0145 280.107 29.9553 280.18 29.8779C280.253 29.8005 280.294 29.6866 280.294 29.5364C280.294 29.3269 280.221 29.1493 280.07 28.999C279.92 28.8487 279.679 28.7759 279.351 28.7759C279.141 28.7759 278.946 28.8123 278.763 28.8806C278.581 28.9489 278.422 29.0628 278.29 29.2176C278.158 29.3724 278.062 29.5637 278.003 29.7959L276.578 29.3588C276.669 29.0537 276.796 28.785 276.96 28.5618C277.124 28.3387 277.324 28.1474 277.566 27.9926C277.807 27.8378 278.085 27.7239 278.399 27.6511C278.713 27.5782 279.046 27.5372 279.396 27.5372C279.966 27.5372 280.43 27.6283 280.794 27.8104C281.159 27.9926 281.427 28.2795 281.61 28.662C281.792 29.0445 281.878 29.5409 281.878 30.1511V31.1484C281.878 31.408 281.883 31.6767 281.897 31.9499C281.91 32.2231 281.924 32.4964 281.947 32.7696C281.969 33.0428 281.997 33.3161 282.024 33.5847H280.576C280.553 33.398 280.53 33.1794 280.503 32.9335C280.476 32.6876 280.457 32.4417 280.439 32.2049H280.248C280.134 32.4827 279.984 32.7377 279.788 32.9745C279.592 33.2113 279.355 33.398 279.078 33.5346C278.795 33.6713 278.481 33.7441 278.13 33.7441L278.126 33.7487ZM280.471 26.968C280.312 26.968 280.148 26.9361 279.966 26.8769C279.784 26.8177 279.61 26.7494 279.433 26.6674C279.255 26.59 279.091 26.5172 278.941 26.4534C278.786 26.3896 278.663 26.3578 278.563 26.3578C278.436 26.3578 278.358 26.4124 278.326 26.5217C278.294 26.631 278.294 26.754 278.317 26.8951H277.575C277.447 26.6264 277.397 26.3714 277.425 26.1392C277.452 25.9024 277.538 25.7111 277.693 25.5608C277.848 25.4106 278.044 25.3377 278.281 25.3377C278.44 25.3377 278.604 25.3696 278.782 25.4288C278.959 25.488 279.132 25.5563 279.305 25.6383C279.478 25.7157 279.638 25.784 279.784 25.8386C279.929 25.8933 280.048 25.9206 280.139 25.9206C280.266 25.9206 280.344 25.8614 280.371 25.7476C280.398 25.6337 280.398 25.5153 280.376 25.406H281.127C281.223 25.661 281.264 25.9069 281.25 26.1483C281.236 26.3896 281.163 26.5855 281.036 26.7357C280.908 26.8906 280.722 26.968 280.476 26.968H280.471ZM278.814 32.5829C278.95 32.5829 279.091 32.5556 279.242 32.5055C279.392 32.4554 279.533 32.3825 279.67 32.2869C279.806 32.1958 279.934 32.0774 280.052 31.9317C280.171 31.7905 280.262 31.6311 280.321 31.449V30.5154L280.567 30.561C280.439 30.6566 280.284 30.734 280.102 30.7932C279.92 30.8479 279.733 30.8934 279.542 30.9207C279.351 30.9526 279.164 30.9845 278.973 31.0209C278.782 31.0573 278.618 31.1029 278.467 31.1621C278.317 31.2167 278.203 31.2987 278.121 31.4034C278.039 31.5082 277.998 31.6493 277.998 31.8315C277.998 32.0637 278.071 32.2459 278.222 32.3825C278.372 32.5146 278.568 32.5829 278.818 32.5829H278.814Z" fill="#002068"/>
<path d="M285.972 33.7487C285.39 33.7487 284.87 33.6303 284.42 33.3935C283.964 33.1567 283.614 32.8106 283.359 32.3507C283.104 31.8907 282.976 31.317 282.976 30.6293C282.976 29.9417 283.104 29.3679 283.363 28.9125C283.623 28.4571 283.978 28.1156 284.429 27.8833C284.88 27.6511 285.394 27.5418 285.972 27.5418C286.551 27.5418 287.074 27.6557 287.534 27.8879C287.99 28.1201 288.35 28.4662 288.605 28.9262C288.864 29.3861 288.992 29.9599 288.992 30.6521C288.992 31.3443 288.86 31.9363 288.595 32.3962C288.331 32.8562 287.967 33.1977 287.512 33.4208C287.056 33.6394 286.542 33.7533 285.972 33.7533V33.7487ZM286.032 32.5602C286.323 32.5602 286.569 32.4918 286.769 32.3507C286.97 32.2141 287.115 32.0046 287.22 31.7314C287.32 31.4581 287.37 31.1257 287.37 30.7386C287.37 30.3288 287.316 29.9781 287.207 29.6867C287.097 29.3952 286.938 29.1766 286.728 29.0173C286.519 28.8579 286.255 28.7805 285.931 28.7805C285.654 28.7805 285.412 28.8488 285.207 28.9808C285.002 29.1129 284.852 29.3178 284.752 29.591C284.656 29.8643 284.606 30.2013 284.606 30.6066C284.606 31.235 284.734 31.7177 284.984 32.0501C285.235 32.3826 285.585 32.551 286.036 32.551L286.032 32.5602Z" fill="#002068"/>
<path d="M255.025 44.9737C254.455 44.9737 253.945 44.8918 253.499 44.7324C253.048 44.573 252.666 44.3316 252.347 44.0083C252.028 43.685 251.787 43.2934 251.623 42.8289C251.459 42.3644 251.377 41.8179 251.377 41.1895C251.377 40.5611 251.459 39.9918 251.623 39.5046C251.787 39.0173 252.028 38.6075 252.347 38.2705C252.666 37.9335 253.039 37.6785 253.476 37.5054C253.909 37.3324 254.392 37.2458 254.924 37.2458C255.343 37.2458 255.726 37.2959 256.077 37.4052C256.427 37.5145 256.728 37.6648 256.987 37.8697C257.247 38.0747 257.447 38.3251 257.588 38.6166C257.73 38.908 257.807 39.2359 257.812 39.6047L256.318 40.01C256.318 39.6822 256.245 39.4089 256.104 39.1995C255.963 38.99 255.781 38.8351 255.567 38.7259C255.348 38.6211 255.116 38.5665 254.87 38.5665C254.66 38.5665 254.446 38.612 254.232 38.6985C254.014 38.7896 253.818 38.9308 253.636 39.1266C253.458 39.3224 253.317 39.5774 253.217 39.8962C253.117 40.215 253.066 40.6066 253.066 41.0802C253.066 41.695 253.153 42.1868 253.326 42.5602C253.499 42.9336 253.74 43.2114 254.05 43.3844C254.36 43.562 254.701 43.6486 255.079 43.6486C255.489 43.6486 255.812 43.562 256.04 43.389C256.268 43.2159 256.432 42.9974 256.532 42.7332C256.632 42.4691 256.691 42.1868 256.705 41.8953L258.108 42.1185C258.098 42.5147 258.039 42.8881 257.925 43.2342C257.812 43.5803 257.638 43.8854 257.397 44.1449C257.156 44.4045 256.842 44.6049 256.45 44.746C256.058 44.8872 255.585 44.9601 255.029 44.9601L255.025 44.9737Z" fill="#002068"/>
<path d="M261.86 44.9736C261.277 44.9736 260.758 44.8552 260.307 44.6184C259.852 44.3816 259.501 44.0355 259.246 43.5756C258.991 43.1156 258.863 42.5418 258.863 41.8542C258.863 41.1666 258.991 40.5928 259.25 40.1374C259.51 39.682 259.865 39.3405 260.316 39.1082C260.767 38.876 261.281 38.7667 261.86 38.7667C262.438 38.7667 262.962 38.8805 263.422 39.1128C263.877 39.345 264.237 39.6911 264.492 40.1511C264.751 40.611 264.879 41.1848 264.879 41.877C264.879 42.5692 264.747 43.1612 264.483 43.6211C264.219 44.081 263.854 44.4226 263.399 44.6457C262.944 44.8643 262.429 44.9781 261.86 44.9781V44.9736ZM261.914 43.785C262.206 43.785 262.452 43.7167 262.652 43.5756C262.853 43.4389 262.998 43.2295 263.103 42.9562C263.203 42.683 263.253 42.3506 263.253 41.9635C263.253 41.5537 263.199 41.203 263.089 40.9116C262.98 40.6201 262.821 40.4015 262.611 40.2421C262.402 40.0828 262.138 40.0053 261.814 40.0053C261.536 40.0053 261.295 40.0737 261.09 40.2057C260.885 40.3378 260.735 40.5427 260.635 40.8159C260.539 41.0892 260.489 41.4261 260.489 41.8314C260.489 42.4599 260.617 42.9426 260.867 43.275C261.118 43.6074 261.468 43.7759 261.919 43.7759L261.914 43.785Z" fill="#002068"/>
<path d="M266.027 44.8188V38.9261H267.352L267.343 40.6793H267.566C267.662 40.2604 267.803 39.9097 267.981 39.6228C268.163 39.3359 268.386 39.1264 268.659 38.9807C268.932 38.8396 269.256 38.7667 269.629 38.7667C270.312 38.7667 270.827 39.008 271.182 39.4862C271.537 39.9644 271.715 40.7203 271.715 41.754V44.8188H270.098V41.9225C270.098 41.3032 270.007 40.8433 269.82 40.5518C269.638 40.2604 269.365 40.1146 269.005 40.1146C268.7 40.1146 268.445 40.2103 268.245 40.397C268.044 40.5837 267.894 40.8296 267.789 41.1301C267.685 41.4353 267.63 41.7722 267.63 42.1457V44.8188H266.013H266.027Z" fill="#002068"/>
<path d="M275.307 44.951C274.656 44.951 274.174 44.778 273.859 44.4273C273.545 44.0767 273.386 43.5257 273.386 42.7606V40.2013H272.543L272.566 38.9217H273.149C273.372 38.9217 273.545 38.8898 273.659 38.8215C273.773 38.7532 273.85 38.6303 273.878 38.4527L274.01 37.6102H274.929V38.9263H276.423V40.2378H274.929V42.6969C274.929 42.9564 274.993 43.1522 275.121 43.2797C275.248 43.4073 275.439 43.471 275.695 43.471C275.845 43.471 275.981 43.4528 276.109 43.4209C276.236 43.389 276.35 43.3389 276.455 43.2706V44.7871C276.223 44.8554 276.009 44.9009 275.813 44.9237C275.617 44.9465 275.449 44.9556 275.298 44.9556L275.307 44.951Z" fill="#002068"/>
<path d="M278.969 44.9736C278.632 44.9736 278.336 44.9099 278.081 44.7778C277.826 44.6458 277.625 44.4591 277.484 44.2086C277.343 43.9627 277.27 43.6576 277.27 43.2978C277.27 42.9745 277.334 42.7058 277.457 42.4827C277.58 42.2641 277.762 42.0865 278.008 41.9499C278.249 41.8133 278.545 41.704 278.891 41.6129C279.233 41.5218 279.638 41.4444 280.103 41.3761C280.335 41.3397 280.526 41.3032 280.681 41.2714C280.836 41.2395 280.95 41.1803 281.023 41.1029C281.095 41.0254 281.136 40.9116 281.136 40.7613C281.136 40.5518 281.064 40.3742 280.913 40.224C280.763 40.0737 280.522 40.0008 280.194 40.0008C279.984 40.0008 279.788 40.0373 279.606 40.1056C279.424 40.1739 279.265 40.2877 279.133 40.4426C279.001 40.5974 278.905 40.7886 278.846 41.0209L277.42 40.5837C277.512 40.2786 277.639 40.0099 277.803 39.7868C277.967 39.5637 278.167 39.3724 278.409 39.2176C278.65 39.0627 278.928 38.9489 279.242 38.876C279.556 38.8032 279.889 38.7622 280.239 38.7622C280.809 38.7622 281.273 38.8533 281.637 39.0354C282.002 39.2176 282.27 39.5045 282.452 39.887C282.635 40.2695 282.721 40.7659 282.721 41.3761V42.3734C282.721 42.633 282.726 42.9016 282.739 43.1749C282.753 43.4481 282.767 43.7213 282.789 43.9946C282.812 44.2678 282.84 44.541 282.867 44.8097H281.419C281.396 44.623 281.373 44.4044 281.346 44.1585C281.319 43.9126 281.3 43.6667 281.282 43.4299H281.091C280.977 43.7077 280.827 43.9627 280.631 44.1995C280.435 44.4363 280.198 44.623 279.921 44.7596C279.638 44.8962 279.324 44.9691 278.973 44.9691L278.969 44.9736ZM279.652 43.8078C279.788 43.8078 279.93 43.7805 280.08 43.7304C280.23 43.6803 280.371 43.6075 280.508 43.5118C280.645 43.4208 280.772 43.3024 280.89 43.1566C281.009 43.0155 281.1 42.8561 281.159 42.6739V41.7404L281.405 41.7859C281.278 41.8816 281.123 41.959 280.941 42.0182C280.758 42.0728 280.572 42.1184 280.38 42.1457C280.189 42.1776 280.002 42.2094 279.811 42.2459C279.62 42.2823 279.456 42.3278 279.306 42.387C279.155 42.4417 279.042 42.5237 278.96 42.6284C278.878 42.7331 278.837 42.8743 278.837 43.0565C278.837 43.2887 278.91 43.4709 279.06 43.6075C279.21 43.7395 279.406 43.8078 279.656 43.8078H279.652ZM280.699 38.1383H279.465L280.308 36.2393H281.915L280.704 38.1383H280.699Z" fill="#002068"/>
<path d="M287.712 44.9736C287.338 44.9736 287.01 44.9008 286.737 44.755C286.459 44.6093 286.236 44.3998 286.063 44.122C285.89 43.8443 285.772 43.5073 285.704 43.1111H285.503L285.48 44.8188H284.146V36.7903H285.763V38.7212C285.763 38.8988 285.749 39.0946 285.722 39.2995C285.694 39.5044 285.663 39.7185 285.626 39.9325C285.59 40.1511 285.549 40.3788 285.503 40.6156H285.749C285.845 40.2331 285.981 39.9052 286.145 39.6319C286.314 39.3587 286.528 39.1492 286.787 39.0035C287.047 38.8578 287.357 38.7849 287.725 38.7849C288.222 38.7849 288.645 38.9124 289.01 39.1675C289.374 39.4225 289.652 39.7822 289.848 40.2467C290.043 40.7112 290.139 41.2668 290.139 41.9089C290.139 42.551 290.043 43.0701 289.852 43.5255C289.661 43.9809 289.383 44.3361 289.014 44.5911C288.65 44.8461 288.213 44.9736 287.712 44.9736ZM287.152 43.6484C287.416 43.6484 287.643 43.5756 287.835 43.4299C288.031 43.2841 288.181 43.0747 288.29 42.806C288.399 42.5373 288.454 42.2231 288.454 41.8633C288.454 41.5036 288.399 41.1848 288.295 40.9252C288.19 40.6657 288.044 40.4607 287.858 40.315C287.671 40.1647 287.443 40.0919 287.174 40.0919C286.992 40.0919 286.828 40.1238 286.674 40.1921C286.519 40.2604 286.387 40.356 286.277 40.4744C286.168 40.5928 286.068 40.7249 285.99 40.8706C285.913 41.0163 285.854 41.1666 285.817 41.3214C285.781 41.4763 285.763 41.622 285.763 41.7677V41.9817C285.763 42.1548 285.79 42.3369 285.84 42.5328C285.895 42.7286 285.977 42.9107 286.095 43.0792C286.209 43.2477 286.355 43.3843 286.528 43.4936C286.701 43.6029 286.91 43.6576 287.156 43.6576L287.152 43.6484Z" fill="#002068"/>
<path d="M292.115 38.0381C291.801 38.0381 291.56 37.9697 291.391 37.8377C291.223 37.7011 291.141 37.5144 291.141 37.2639C291.141 37.0043 291.223 36.804 291.387 36.6673C291.551 36.5307 291.792 36.467 292.115 36.467C292.439 36.467 292.671 36.5353 292.844 36.6673C293.017 36.7994 293.104 36.9998 293.104 37.2639C293.104 37.528 293.022 37.7102 292.853 37.8422C292.685 37.9743 292.439 38.0381 292.115 38.0381ZM291.305 44.8187V38.9261H292.921V44.8187H291.305Z" fill="#002068"/>
<path d="M294.415 44.8188V36.7903H296V44.8188H294.415Z" fill="#002068"/>
</svg>
