<svg width="1920" height="973" viewBox="0 0 1920 973" fill="none" xmlns="http://www.w3.org/2000/svg">
<path d="M0 0H1920V12.9999C1920 68.7115 1920 96.5673 1918.77 120.102C1894.66 580.108 1527.11 947.659 1067.1 971.767C1043.57 973 1015.71 973 960 973C904.288 973 876.433 973 852.898 971.767C392.892 947.659 25.3413 580.108 1.23342 120.102C0 96.5673 0 68.7115 0 12.9999V0Z" fill="#00153A"/>
<path d="M0 0H1920V12.9999C1920 68.7115 1920 96.5673 1918.77 120.102C1894.66 580.108 1527.11 947.659 1067.1 971.767C1043.57 973 1015.71 973 960 973C904.288 973 876.433 973 852.898 971.767C392.892 947.659 25.3413 580.108 1.23342 120.102C0 96.5673 0 68.7115 0 12.9999V0Z" fill="url(#paint0_linear_6_2143)" fill-opacity="0.7"/>
<path d="M0 0H1920V12.9999C1920 68.7115 1920 96.5673 1918.77 120.102C1894.66 580.108 1527.11 947.659 1067.1 971.767C1043.57 973 1015.71 973 960 973C904.288 973 876.433 973 852.898 971.767C392.892 947.659 25.3413 580.108 1.23342 120.102C0 96.5673 0 68.7115 0 12.9999V0Z" fill="url(#paint1_radial_6_2143)" fill-opacity="0.3"/>
<defs>
<linearGradient id="paint0_linear_6_2143" x1="960" y1="1523.33" x2="960" y2="-752.177" gradientUnits="userSpaceOnUse">
<stop stop-color="#001B51"/>
<stop offset="0.772118" stop-color="#001B51" stop-opacity="0"/>
</linearGradient>
<radialGradient id="paint1_radial_6_2143" cx="0" cy="0" r="1" gradientUnits="userSpaceOnUse" gradientTransform="translate(1778 1469.28) rotate(-117.584) scale(1836.77 1925.92)">
<stop stop-color="#28459A" stop-opacity="0"/>
<stop stop-color="#28459A"/>
<stop offset="0.697052" stop-color="#28459A" stop-opacity="0"/>
</radialGradient>
</defs>
</svg>
