<svg width="70" height="70" viewBox="0 0 70 70" fill="none" xmlns="http://www.w3.org/2000/svg">
<rect width="70" height="70" rx="35" fill="#FF8000"/>
<g clip-path="url(#clip0_2594_195)">
<path d="M42.5 47.5004H36.25V23.5292L41.625 28.9042C41.8608 29.1318 42.1765 29.2578 42.5043 29.255C42.832 29.2521 43.1455 29.1207 43.3773 28.8889C43.609 28.6572 43.7405 28.3436 43.7434 28.0159C43.7462 27.6882 43.6202 27.3724 43.3925 27.1367L37.21 20.9542C36.9198 20.6639 36.5753 20.4336 36.1961 20.2765C35.8169 20.1194 35.4105 20.0386 35 20.0386C34.5896 20.0386 34.1831 20.1194 33.8039 20.2765C33.4247 20.4336 33.0802 20.6639 32.79 20.9542L26.6025 27.1417C26.3681 27.3767 26.2367 27.6952 26.2372 28.0272C26.2377 28.3591 26.37 28.6773 26.605 28.9117C26.8401 29.146 27.1586 29.2774 27.4905 29.277C27.8225 29.2765 28.1406 29.1442 28.375 28.9092L33.75 23.5342V47.5004H27.5C27.1685 47.5004 26.8505 47.6321 26.6161 47.8665C26.3817 48.1009 26.25 48.4189 26.25 48.7504C26.25 49.0819 26.3817 49.3999 26.6161 49.6343C26.8505 49.8687 27.1685 50.0004 27.5 50.0004H42.5C42.8315 50.0004 43.1495 49.8687 43.3839 49.6343C43.6183 49.3999 43.75 49.0819 43.75 48.7504C43.75 48.4189 43.6183 48.1009 43.3839 47.8665C43.1495 47.6321 42.8315 47.5004 42.5 47.5004Z" fill="#002068"/>
</g>
<defs>
<clipPath id="clip0_2594_195">
<rect width="30" height="30" fill="white" transform="translate(20 20)"/>
</clipPath>
</defs>
</svg>
