<svg width="19" height="19" viewBox="0 0 19 19" fill="none" xmlns="http://www.w3.org/2000/svg">
<g clip-path="url(#clip0_77_1574)">
<path d="M0.130798 18.552C0.272389 18.0352 0.406162 17.545 0.540803 17.0544C0.819641 16.0382 1.10195 15.0231 1.37297 14.0048C1.39903 13.907 1.38745 13.7729 1.3391 13.6855C-1.15105 9.16853 0.59466 3.48588 5.1965 1.14534C10.283 -1.44148 16.4658 1.15976 18.1415 6.59151C19.6205 11.3865 16.9007 16.5212 12.0817 17.992C9.6886 18.7225 7.3664 18.4935 5.13019 17.3731C5.0442 17.3299 4.9194 17.318 4.82558 17.342C3.32889 17.7252 1.83452 18.1171 0.339565 18.5065C0.279917 18.522 0.219112 18.533 0.130798 18.552ZM2.32878 16.3938C3.24811 16.1535 4.12921 15.9271 5.008 15.6904C5.15741 15.6503 5.2712 15.6702 5.40295 15.7489C7.09943 16.762 8.92737 17.096 10.8645 16.7121C14.9715 15.8986 17.6333 11.9416 16.8593 7.8359C16.0903 3.75725 12.0731 1.03316 7.97098 1.80892C2.84158 2.77905 0.16873 8.47525 2.74863 12.9917C3.01589 13.4594 3.07032 13.8438 2.90383 14.3364C2.67972 14.9991 2.52336 15.6843 2.32878 16.3938Z" fill="#002068"/>
<path d="M6.41259 5.06508C6.8003 4.96933 6.99054 5.20206 7.12634 5.55245C7.33394 6.08827 7.56095 6.61688 7.78912 7.14463C7.86846 7.32833 7.86151 7.48983 7.74221 7.64815C7.56095 7.88809 7.38751 8.13437 7.19583 8.36594C7.0664 8.52225 7.05482 8.66183 7.15848 8.83544C7.90668 10.087 8.9508 10.9923 10.312 11.5324C10.4993 11.6068 10.6473 11.5728 10.7727 11.4165C10.9971 11.137 11.227 10.8616 11.449 10.5805C11.6126 10.3737 11.7068 10.3226 11.9419 10.4293C12.589 10.7232 13.2304 11.0301 13.8656 11.349C13.9441 11.3885 14.0148 11.5327 14.0133 11.627C13.9985 12.5997 13.7113 13.0658 12.6707 13.5018C12.0803 13.749 11.4673 13.691 10.8584 13.522C8.64909 12.9092 7.02152 11.5261 5.71941 9.70261C5.3149 9.13622 4.95007 8.55224 4.79516 7.86559C4.5722 6.8773 4.81601 6.0205 5.54568 5.30502C5.78282 5.07258 6.06947 5.02615 6.41259 5.06508Z" fill="#002068"/>
</g>
<defs>
<clipPath id="clip0_77_1574">
<rect width="18.414" height="18.414" fill="white" transform="translate(0.130737 0.138)"/>
</clipPath>
</defs>
</svg>
