<svg width="25" height="24" viewBox="0 0 25 24" fill="none" xmlns="http://www.w3.org/2000/svg">
<path d="M23.665 7.13419C23.1086 5.73075 22.3141 4.49714 21.281 3.43412C20.2479 2.3711 18.9963 1.53299 17.526 0.919413C16.0562 0.306598 14.3807 0 12.4999 0C10.6191 0 9.01628 0.306598 7.53313 0.919793C6.04924 1.53299 4.78466 2.37148 3.73866 3.4345C2.69193 4.49752 1.89109 5.73151 1.33505 7.13457C0.778635 8.53876 0.500244 10.0167 0.500244 11.5705V12.5109C0.500244 14.0378 0.764605 15.4891 1.29517 16.8651C1.82463 18.242 2.60627 19.4688 3.63934 20.5451C4.67279 21.6222 5.93035 22.4667 7.41424 23.0799C8.89739 23.6935 10.5928 24.0001 12.5002 24.0001C14.4076 24.0001 16.1422 23.6935 17.6261 23.0799C19.1093 22.4667 20.3609 21.6222 21.3811 20.5451C22.4005 19.4688 23.1751 18.242 23.7053 16.8651C24.2351 15.4894 24.4999 14.0378 24.4999 12.5109V11.5705C24.4999 10.0167 24.2218 8.53876 23.6654 7.13457L23.665 7.13419Z" fill="#FF8000"/>
<path d="M18.7895 12.7153L10.855 19.4957C10.5692 19.74 10.1358 19.5307 10.1358 19.1485V12.5352C10.1358 12.2859 9.93934 12.0838 9.69713 12.0838H6.49084C6.08026 12.0838 5.89455 11.555 6.2106 11.2852L14.1451 4.50474C14.4309 4.26045 14.8644 4.46979 14.8644 4.85199V11.4653C14.8644 11.7145 15.0608 11.9167 15.303 11.9167H18.5097C18.9202 11.9167 19.1059 12.4455 18.7899 12.7153H18.7895Z" fill="#002068"/>
</svg>
